<svg id="Layer_1" data-name="Layer 1" xmlns="http://www.w3.org/2000/svg" viewBox="0 0 300 300"><defs><style>.cls-1{fill:#fff;}.cls-2{fill:#6c04ee;}</style></defs><circle class="cls-1" cx="150" cy="150" r="150"/><circle class="cls-2" cx="150" cy="150" r="146.25"/><path class="cls-1" d="M192.33,130.78a7.22,7.22,0,0,0-3.19.69c-.35.16-.68.35-1,.54a.54.54,0,0,0-.18.68.42.42,0,0,0,.58.2l.39-.2a7,7,0,0,1,6.88,0,4,4,0,0,0,.46.23.42.42,0,0,0,.54-.23.47.47,0,0,0-.14-.61,3.19,3.19,0,0,0-.38-.26A7.8,7.8,0,0,0,192.33,130.78Zm.06,2.09c-.42.06-.84.09-1.25.17a5.63,5.63,0,0,0-2.12.88.51.51,0,0,0-.17.66.38.38,0,0,0,.55.22l.41-.2a5.1,5.1,0,0,1,4.91-.1l.63.31a.42.42,0,0,0,.54-.2.46.46,0,0,0-.1-.61,1.46,1.46,0,0,0-.34-.26A6.54,6.54,0,0,0,192.39,132.87Zm0,2.19a4.12,4.12,0,0,0-2.32.65,1.09,1.09,0,0,0-.26.21.53.53,0,0,0-.07.6.38.38,0,0,0,.52.2l.46-.23a3.18,3.18,0,0,1,2.39-.32,9.71,9.71,0,0,1,1.31.53.41.41,0,0,0,.57-.2.48.48,0,0,0-.14-.65l-.15-.12A4.09,4.09,0,0,0,192.4,135.06Zm-.14,2a2.38,2.38,0,0,0-1.57.65.48.48,0,0,0-.09.62.42.42,0,0,0,.57.19l.23-.13a1.73,1.73,0,0,1,2,0,1.65,1.65,0,0,0,.26.14.43.43,0,0,0,.53-.21.46.46,0,0,0-.06-.57,1.34,1.34,0,0,0-.34-.29A2.6,2.6,0,0,0,192.26,137.06Z"/><path class="cls-1" d="M192.33,130.78a7.8,7.8,0,0,1,3.95,1,3.19,3.19,0,0,1,.38.26.47.47,0,0,1,.14.61.42.42,0,0,1-.54.23,4,4,0,0,1-.46-.23,7,7,0,0,0-6.88,0l-.39.2a.42.42,0,0,1-.58-.2.54.54,0,0,1,.18-.68c.33-.19.66-.38,1-.54A7.22,7.22,0,0,1,192.33,130.78Z"/><path class="cls-1" d="M192.39,132.87a6.54,6.54,0,0,1,3.06.87,1.46,1.46,0,0,1,.34.26.46.46,0,0,1,.1.61.42.42,0,0,1-.54.2l-.63-.31a5.1,5.1,0,0,0-4.91.1l-.41.2a.38.38,0,0,1-.55-.22.51.51,0,0,1,.17-.66,5.63,5.63,0,0,1,2.12-.88C191.55,133,192,132.93,192.39,132.87Z"/><path class="cls-1" d="M192.4,135.06a4.09,4.09,0,0,1,2.31.67l.15.12a.48.48,0,0,1,.14.65.41.41,0,0,1-.57.2,9.71,9.71,0,0,0-1.31-.53,3.18,3.18,0,0,0-2.39.32l-.46.23a.38.38,0,0,1-.52-.2.53.53,0,0,1,.07-.6,1.09,1.09,0,0,1,.26-.21A4.12,4.12,0,0,1,192.4,135.06Z"/><path class="cls-1" d="M192.26,137.06a2.6,2.6,0,0,1,1.49.41,1.34,1.34,0,0,1,.34.29.46.46,0,0,1,.06.57.43.43,0,0,1-.53.21,1.65,1.65,0,0,1-.26-.14,1.73,1.73,0,0,0-2,0l-.23.13a.42.42,0,0,1-.57-.19.48.48,0,0,1,.09-.62A2.38,2.38,0,0,1,192.26,137.06Z"/><path class="cls-1" d="M191.38,174.26c-.26-.45-.73-.91-.72-1.35a9.42,9.42,0,0,0-1.73-5.22,18.06,18.06,0,0,1-2.61-7.1,3.72,3.72,0,0,1,.9-3.46c.94-.88,2-.48,2.19.83.08.5.08,1.13.7.92.25-.08.48-.74.49-1.13,0-5,0-10.07,0-15.1,0-.28,0-.56,0-.84a1.83,1.83,0,1,1,3.6.05c0,3.22,0,6.43,0,9.65a2.14,2.14,0,0,0,0,.72,3.93,3.93,0,0,0,.52.76c.23-.24.57-.44.66-.73a6.69,6.69,0,0,0,.06-1.35,1.75,1.75,0,1,1,3.5,0c.06,1.19,0,2.38,0,3.57,0,.53,0,1.16.65,1.14s.61-.66.61-1.18c0-.28,0-.56,0-.84a1.91,1.91,0,0,1,1.6-1.9,1.7,1.7,0,0,1,1.85,1.55c.14,1,.08,2,.13,3,0,.56-.19,1.38.62,1.37s.53-.78.57-1.31a7.17,7.17,0,0,1,.08-1,1.75,1.75,0,0,1,3.49.24c0,3.47.41,7-.92,10.33a18.45,18.45,0,0,0-.89,6.59,6.38,6.38,0,0,1-.63,1.84Z"/><path class="cls-1" d="M182.94,139.38c.73,0,1.46,0,2.18,0a1.23,1.23,0,0,1,1.31,1.33,1.2,1.2,0,0,1-1.31,1.31c-1.52,0-3,0-4.55,0a1.19,1.19,0,0,1-1.29-1.32,1.21,1.21,0,0,1,1.3-1.32C181.36,139.36,182.15,139.38,182.94,139.38Z"/><path class="cls-1" d="M202,142c-.73,0-1.46,0-2.18,0a1.2,1.2,0,0,1-1.29-1.33,1.22,1.22,0,0,1,1.31-1.31c1.52,0,3,0,4.55,0a1.19,1.19,0,0,1,1.28,1.33,1.21,1.21,0,0,1-1.31,1.31C203.58,142.06,202.79,142,202,142Z"/><path class="cls-1" d="M58.45,150.51a4.8,4.8,0,0,0-2.76.89l-8.07-6.22a6.3,6.3,0,0,0,0-3.15L55.47,136a4.81,4.81,0,0,0,3,1.05,5.73,5.73,0,1,0-5.16-5.7,6.89,6.89,0,0,0,.12,1.21l-8,6.21a4.73,4.73,0,0,0-2.7-.85,5.73,5.73,0,0,0,0,11.41,4.73,4.73,0,0,0,2.7-.85l8.11,6.26a6.69,6.69,0,0,0-.18,1.5,5.19,5.19,0,1,0,5.16-5.71Z"/><path class="cls-1" d="M42.66,149.37a4.81,4.81,0,0,0,2.77-.89l8.06,6.22a6.3,6.3,0,0,0,0,3.15l-7.85,6.05a4.81,4.81,0,0,0-3-1.05,5.73,5.73,0,0,0,0,11.41,5.46,5.46,0,0,0,5.16-5.71,6.06,6.06,0,0,0-.12-1.21l8-6.21a4.75,4.75,0,0,0,2.7.85,5.73,5.73,0,0,0,0-11.41,4.75,4.75,0,0,0-2.7.85l-8.11-6.26a6.14,6.14,0,0,0,.18-1.49A5.46,5.46,0,0,0,42.66,138a5.73,5.73,0,0,0,0,11.41Z"/><path class="cls-1" d="M69.22,151.53a.86.86,0,0,1,.22-.61.73.73,0,0,1,.56-.26h1.72a.65.65,0,0,1,.53.26.9.9,0,0,1,.21.61v21.93a1,1,0,0,1-.21.62.64.64,0,0,1-.53.25H70a.72.72,0,0,1-.56-.25.91.91,0,0,1-.22-.62Zm5.64,9.68a1,1,0,0,1,.21-.62.69.69,0,0,1,.54-.25H87.73v-8.81a.87.87,0,0,1,.23-.61.71.71,0,0,1,.53-.26h1.64a.73.73,0,0,1,.56.26.84.84,0,0,1,.24.61v21.93a.88.88,0,0,1-.24.62.72.72,0,0,1-.56.25H88.49a.7.7,0,0,1-.53-.25.91.91,0,0,1-.23-.62v-10H75.61a.71.71,0,0,1-.54-.23.88.88,0,0,1-.21-.6Z"/><path class="cls-1" d="M120.81,173.6a1.45,1.45,0,0,1,.08.32.37.37,0,0,1-.41.41h-2.33a.52.52,0,0,1-.49-.37l-2.37-5.46h-10c-.2,0-.29-.1-.29-.32a.56.56,0,0,1,0-.23l.91-2a.62.62,0,0,1,.63-.46H114l-5.06-12.07L99.85,174a.53.53,0,0,1-.5.37H97.28a.37.37,0,0,1-.42-.41,2.61,2.61,0,0,1,.08-.32l9.84-22.07a1.59,1.59,0,0,1,.48-.61,1,1,0,0,1,.64-.26h1.95a1,1,0,0,1,.65.26,1.67,1.67,0,0,1,.47.61Z"/><path class="cls-1" d="M127.53,151.53a.9.9,0,0,1,.21-.61.67.67,0,0,1,.54-.26h12.45a5.69,5.69,0,0,1,2.56.58,6.81,6.81,0,0,1,2.07,1.56,7.22,7.22,0,0,1,1.41,2.29,7.48,7.48,0,0,1,.52,2.82,7.73,7.73,0,0,1-.37,2.43,7.39,7.39,0,0,1-1,2.06A7,7,0,0,1,144.3,164a6.06,6.06,0,0,1-2,.94l5.9,8.89a.7.7,0,0,1,.08.33c0,.15-.08.23-.25.23h-2.62a1.09,1.09,0,0,1-.6-.21,1.75,1.75,0,0,1-.52-.53l-5.64-8.48h-4.86a.71.71,0,0,1-.54-.23.86.86,0,0,1-.2-.6v-1.42a.86.86,0,0,1,.2-.6.71.71,0,0,1,.54-.23h6.48a3.63,3.63,0,0,0,2.72-1.19,4.35,4.35,0,0,0,0-5.87,3.67,3.67,0,0,0-2.72-1.19h-9.59V173.5a.81.81,0,0,1-.23.6.77.77,0,0,1-.56.23h-1.66a.71.71,0,0,1-.54-.23.84.84,0,0,1-.21-.6Z"/><path class="cls-1" d="M159.2,171.16h14.74a.71.71,0,0,1,.52.26.89.89,0,0,1,.22.62v1.46a.84.84,0,0,1-.22.58.7.7,0,0,1-.52.25H156.75a.7.7,0,0,1-.52-.25.84.84,0,0,1-.22-.58v-22a.86.86,0,0,1,.22-.61.71.71,0,0,1,.52-.26h17a.73.73,0,0,1,.56.26.87.87,0,0,1,.23.61V153a.85.85,0,0,1-.23.58.75.75,0,0,1-.56.25H159.2Zm2.28-9.9a.86.86,0,0,1,.21-.6.71.71,0,0,1,.54-.23h10.42a.73.73,0,0,1,.52.23.83.83,0,0,1,.23.6v1.42a.85.85,0,0,1-.23.6.73.73,0,0,1-.52.23H162.23a.71.71,0,0,1-.54-.23.88.88,0,0,1-.21-.6Z"/><path class="cls-1" d="M236,173.19a1.45,1.45,0,0,1,.08.32.37.37,0,0,1-.41.41h-2.33a.52.52,0,0,1-.49-.37l-2.37-5.45h-10c-.2,0-.29-.11-.29-.33a.48.48,0,0,1,0-.22l.91-2a.62.62,0,0,1,.62-.46h7.35L224.11,153l-9.05,20.54a.53.53,0,0,1-.5.37h-2.07a.37.37,0,0,1-.42-.41,2.61,2.61,0,0,1,.08-.32L222,151.13a1.62,1.62,0,0,1,.48-.62,1,1,0,0,1,.64-.26h1.95a1,1,0,0,1,.65.26,1.7,1.7,0,0,1,.47.62Z"/><path class="cls-1" d="M242.74,151.13a.93.93,0,0,1,.21-.62.67.67,0,0,1,.54-.26H256a5.83,5.83,0,0,1,2.56.58,6.5,6.5,0,0,1,2,1.56,7.75,7.75,0,0,1,1.39,2.29,7.69,7.69,0,0,1-1.39,7.91,6.74,6.74,0,0,1-2,1.54,5.82,5.82,0,0,1-2.56.57h-6.93a.68.68,0,0,1-.54-.23.84.84,0,0,1-.21-.59v-1.43a.84.84,0,0,1,.21-.59.71.71,0,0,1,.54-.23h6.44a3.76,3.76,0,0,0,1.51-.32,4.34,4.34,0,0,0,1.27-.87,4.17,4.17,0,0,0,.85-1.31,4.42,4.42,0,0,0,.31-1.63,4.15,4.15,0,0,0-.31-1.6,4.19,4.19,0,0,0-.85-1.29,4,4,0,0,0-1.27-.87,3.76,3.76,0,0,0-1.51-.32h-9.55v19.67a.81.81,0,0,1-.23.6.77.77,0,0,1-.56.23h-1.66a.71.71,0,0,1-.54-.23.84.84,0,0,1-.21-.6Z"/></svg>