<svg id="Layer_1" data-name="Layer 1" xmlns="http://www.w3.org/2000/svg" viewBox="0 0 180 180"><defs><style>.cls-1{fill:#fff;}.cls-2{fill:#6c04ee;}</style></defs><circle class="cls-1" cx="90" cy="90" r="90"/><circle class="cls-2" cx="90" cy="90" r="87.75"/><path class="cls-1" d="M115.4,78.47a4.39,4.39,0,0,0-1.92.41l-.6.33a.33.33,0,0,0-.11.4.25.25,0,0,0,.35.12l.23-.11a4.22,4.22,0,0,1,4.13,0l.27.14a.26.26,0,0,0,.33-.14.28.28,0,0,0-.08-.37l-.23-.15A4.57,4.57,0,0,0,115.4,78.47Zm0,1.25-.75.1a3.62,3.62,0,0,0-1.27.53.31.31,0,0,0-.1.4.23.23,0,0,0,.33.13l.25-.12a3.07,3.07,0,0,1,2.94-.06l.38.19a.25.25,0,0,0,.32-.13.27.27,0,0,0,0-.36,1.06,1.06,0,0,0-.21-.16A4,4,0,0,0,115.43,79.72Zm0,1.31a2.49,2.49,0,0,0-1.39.4.61.61,0,0,0-.16.12.32.32,0,0,0,0,.36c.08.13.18.18.31.12l.28-.14a1.94,1.94,0,0,1,1.43-.19,5.94,5.94,0,0,1,.79.32.24.24,0,0,0,.34-.12.29.29,0,0,0-.08-.39l-.1-.07A2.45,2.45,0,0,0,115.44,81Zm-.08,1.2a1.45,1.45,0,0,0-1,.4.29.29,0,0,0,0,.37.25.25,0,0,0,.34.11l.14-.08A1.06,1.06,0,0,1,116,83l.15.08a.26.26,0,0,0,.32-.12.26.26,0,0,0,0-.34.86.86,0,0,0-.2-.18A1.72,1.72,0,0,0,115.36,82.23Z"/><path class="cls-1" d="M115.4,78.47a4.57,4.57,0,0,1,2.37.62l.23.15a.28.28,0,0,1,.08.37.26.26,0,0,1-.33.14l-.27-.14a4.22,4.22,0,0,0-4.13,0l-.23.11a.25.25,0,0,1-.35-.12.33.33,0,0,1,.11-.4l.6-.33A4.39,4.39,0,0,1,115.4,78.47Z"/><path class="cls-1" d="M115.43,79.72a4,4,0,0,1,1.84.52,1.06,1.06,0,0,1,.21.16.27.27,0,0,1,0,.36.25.25,0,0,1-.32.13l-.38-.19a3.07,3.07,0,0,0-2.94.06l-.25.12a.23.23,0,0,1-.33-.13.31.31,0,0,1,.1-.4,3.62,3.62,0,0,1,1.27-.53Z"/><path class="cls-1" d="M115.44,81a2.45,2.45,0,0,1,1.38.41l.1.07a.29.29,0,0,1,.08.39.24.24,0,0,1-.34.12,5.94,5.94,0,0,0-.79-.32,1.94,1.94,0,0,0-1.43.19l-.28.14c-.13.06-.23,0-.31-.12a.32.32,0,0,1,0-.36.61.61,0,0,1,.16-.12A2.49,2.49,0,0,1,115.44,81Z"/><path class="cls-1" d="M115.36,82.23a1.72,1.72,0,0,1,.89.25.86.86,0,0,1,.2.18.26.26,0,0,1,0,.34.26.26,0,0,1-.32.12L116,83a1.06,1.06,0,0,0-1.18,0l-.14.08a.25.25,0,0,1-.34-.11.29.29,0,0,1,0-.37A1.45,1.45,0,0,1,115.36,82.23Z"/><path class="cls-1" d="M114.83,104.55c-.16-.27-.44-.54-.44-.81a5.63,5.63,0,0,0-1-3.13,11,11,0,0,1-1.57-4.26,2.24,2.24,0,0,1,.54-2.07c.57-.53,1.19-.29,1.32.5,0,.29,0,.67.41.55.15,0,.3-.44.3-.68,0-3,0-6,0-9.06,0-.17,0-.34,0-.5,0-.75.51-1.29,1.1-1.27a1.18,1.18,0,0,1,1.06,1.3c0,1.93,0,3.86,0,5.78a1.28,1.28,0,0,0,0,.44,2.77,2.77,0,0,0,.31.45c.14-.14.35-.26.4-.43a4.4,4.4,0,0,0,0-.82,1.09,1.09,0,0,1,1-1.12,1.07,1.07,0,0,1,1.08,1.11c0,.71,0,1.43,0,2.14,0,.32,0,.7.39.68s.37-.39.37-.71c0-.16,0-.33,0-.5a1.14,1.14,0,0,1,.95-1.14,1,1,0,0,1,1.11.93c.09.6.05,1.21.08,1.82,0,.33-.11.82.37.82s.32-.47.34-.79,0-.42,0-.62a1.05,1.05,0,0,1,2.1.14c0,2.08.25,4.19-.56,6.2a11.14,11.14,0,0,0-.53,4,3.6,3.6,0,0,1-.38,1.1Z"/><path class="cls-1" d="M109.77,83.63h1.3a.75.75,0,0,1,.79.8.73.73,0,0,1-.79.79q-1.36,0-2.73,0a.71.71,0,0,1-.77-.79.73.73,0,0,1,.78-.8C108.82,83.61,109.29,83.63,109.77,83.63Z"/><path class="cls-1" d="M121.2,85.22c-.44,0-.87,0-1.31,0a.72.72,0,0,1-.77-.8.74.74,0,0,1,.79-.79h2.72a.8.8,0,0,1,0,1.59C122.15,85.24,121.67,85.22,121.2,85.22Z"/><path class="cls-1" d="M35.07,90.31a2.85,2.85,0,0,0-1.66.53l-4.84-3.73a3.78,3.78,0,0,0,0-1.89l4.71-3.63a2.93,2.93,0,0,0,1.79.63A3.44,3.44,0,1,0,32,78.8a3.38,3.38,0,0,0,.07.72l-4.83,3.73a2.88,2.88,0,0,0-1.62-.51,3.44,3.44,0,0,0,0,6.84,2.87,2.87,0,0,0,1.62-.5l4.86,3.75a3.82,3.82,0,0,0-.1.9,3.11,3.11,0,1,0,3.09-3.42Z"/><path class="cls-1" d="M25.6,89.62a2.93,2.93,0,0,0,1.66-.53l4.84,3.73a3.78,3.78,0,0,0,0,1.89l-4.71,3.63a3,3,0,0,0-1.79-.63,3.44,3.44,0,0,0,0,6.84,3.26,3.26,0,0,0,3.09-3.42,3.38,3.38,0,0,0-.07-.72l4.83-3.73a2.88,2.88,0,0,0,1.62.51,3.44,3.44,0,0,0,0-6.85,2.88,2.88,0,0,0-1.62.51L28.58,87.1a3.82,3.82,0,0,0,.11-.9,3.26,3.26,0,0,0-3.09-3.42,3.44,3.44,0,0,0,0,6.84Z"/><path class="cls-1" d="M41.53,90.92a.53.53,0,0,1,.14-.37A.43.43,0,0,1,42,90.4h1a.39.39,0,0,1,.32.15.57.57,0,0,1,.12.37v13.15a.6.6,0,0,1-.12.38.39.39,0,0,1-.32.15H42a.43.43,0,0,1-.33-.15.56.56,0,0,1-.14-.38Zm3.39,5.81a.57.57,0,0,1,.12-.37.42.42,0,0,1,.33-.16h7.27V90.92a.49.49,0,0,1,.14-.37.4.4,0,0,1,.31-.15h1a.46.46,0,0,1,.34.15.53.53,0,0,1,.14.37v13.15a.56.56,0,0,1-.14.38.46.46,0,0,1-.34.15h-1a.4.4,0,0,1-.31-.15.51.51,0,0,1-.14-.38v-6H45.37A.43.43,0,0,1,45,98a.56.56,0,0,1-.12-.36Z"/><path class="cls-1" d="M72.49,104.16a1.83,1.83,0,0,1,.05.19.23.23,0,0,1-.25.25h-1.4a.34.34,0,0,1-.3-.22l-1.42-3.28h-6c-.12,0-.18-.06-.18-.19a.29.29,0,0,1,0-.14l.55-1.21a.36.36,0,0,1,.37-.27h4.41l-3-7.24-5.43,12.33a.34.34,0,0,1-.3.22H58.37a.22.22,0,0,1-.25-.25.71.71,0,0,1,.05-.19l5.9-13.24a1,1,0,0,1,.29-.37.59.59,0,0,1,.38-.15h1.17a.64.64,0,0,1,.39.15.93.93,0,0,1,.28.37Z"/><path class="cls-1" d="M76.52,90.92a.57.57,0,0,1,.12-.37A.43.43,0,0,1,77,90.4h7.47a3.43,3.43,0,0,1,1.53.34,4.07,4.07,0,0,1,1.25.94,4.43,4.43,0,0,1,.84,1.37,4.68,4.68,0,0,1-.53,4.39,4.08,4.08,0,0,1-1,1,3.35,3.35,0,0,1-1.17.57L89,104.29a.42.42,0,0,1,0,.2c0,.09,0,.13-.15.13H87.28a.65.65,0,0,1-.36-.12,1,1,0,0,1-.31-.32l-3.39-5.09H80.31A.42.42,0,0,1,80,99a.54.54,0,0,1-.12-.36v-.85a.52.52,0,0,1,.12-.36.42.42,0,0,1,.33-.14h3.88a2.18,2.18,0,0,0,1.63-.72,2.42,2.42,0,0,0,.69-1.76A2.45,2.45,0,0,0,85.82,93a2.21,2.21,0,0,0-1.63-.71H78.44v11.8a.49.49,0,0,1-.14.36.46.46,0,0,1-.34.14H77a.45.45,0,0,1-.33-.14.52.52,0,0,1-.12-.36Z"/><path class="cls-1" d="M95.52,102.7h8.84a.4.4,0,0,1,.31.15.53.53,0,0,1,.14.37v.88a.52.52,0,0,1-.14.35.4.4,0,0,1-.31.15H94.05a.42.42,0,0,1-.31-.15.52.52,0,0,1-.14-.35V90.92a.53.53,0,0,1,.14-.37.42.42,0,0,1,.31-.15h10.19a.43.43,0,0,1,.33.15.53.53,0,0,1,.14.37v.88a.54.54,0,0,1-.14.35.43.43,0,0,1-.33.15H95.52Zm1.37-6A.48.48,0,0,1,97,96.4a.42.42,0,0,1,.32-.14h6.25a.43.43,0,0,1,.31.14.48.48,0,0,1,.14.35v.86a.52.52,0,0,1-.14.36.42.42,0,0,1-.31.13H97.34A.41.41,0,0,1,97,98a.52.52,0,0,1-.13-.36Z"/><path class="cls-1" d="M141.61,103.91a.81.81,0,0,1,0,.19.22.22,0,0,1-.25.25H140a.32.32,0,0,1-.3-.22l-1.42-3.27h-6c-.11,0-.17-.07-.17-.2a.44.44,0,0,1,0-.13l.55-1.21a.37.37,0,0,1,.37-.28h4.41l-3-7.24L129,104.13a.32.32,0,0,1-.3.22h-1.25a.22.22,0,0,1-.25-.25l.05-.19,5.9-13.23a1.2,1.2,0,0,1,.29-.38.62.62,0,0,1,.39-.15H135a.59.59,0,0,1,.38.15,1.07,1.07,0,0,1,.29.38Z"/><path class="cls-1" d="M145.65,90.68a.62.62,0,0,1,.12-.38.39.39,0,0,1,.32-.15h7.5a3.44,3.44,0,0,1,1.53.35,3.89,3.89,0,0,1,1.23.93,4.81,4.81,0,0,1,.84,1.38,4.76,4.76,0,0,1,0,3.38,4.34,4.34,0,0,1-.84,1.36,3.89,3.89,0,0,1-1.23.93,3.43,3.43,0,0,1-1.53.34h-4.16a.39.39,0,0,1-.32-.14.48.48,0,0,1-.13-.35v-.86a.52.52,0,0,1,.13-.36.41.41,0,0,1,.32-.13h3.86a2.19,2.19,0,0,0,.91-.2,2.34,2.34,0,0,0,.76-.52,2.29,2.29,0,0,0,.51-.78,2.67,2.67,0,0,0,.19-1,2.49,2.49,0,0,0-.19-1,2.25,2.25,0,0,0-.51-.77,2.53,2.53,0,0,0-.76-.53,2.35,2.35,0,0,0-.91-.19h-5.73v11.81a.48.48,0,0,1-.13.35.44.44,0,0,1-.34.14h-1a.39.39,0,0,1-.32-.14.51.51,0,0,1-.12-.35Z"/></svg>