<svg width="40" height="10" fill="none" xmlns="http://www.w3.org/2000/svg"><path d="M39.194 4.166H2.745l2.662-2.739a.85.85 0 0 0 .237-.591.85.85 0 0 0-.237-.591A.797.797 0 0 0 4.835 0a.797.797 0 0 0-.573.245L.23 4.408a.836.836 0 0 0-.17.275.858.858 0 0 0 0 .632.837.837 0 0 0 .17.275l4.032 4.163a.806.806 0 0 0 .573.247.785.785 0 0 0 .573-.247.835.835 0 0 0 .238-.59.856.856 0 0 0-.238-.592l-2.662-2.74h36.447a.794.794 0 0 0 .57-.243.847.847 0 0 0 .237-.589.847.847 0 0 0-.236-.589.794.794 0 0 0-.57-.244Z" fill="#043636"/></svg>