<svg width="40" height="10" fill="none" xmlns="http://www.w3.org/2000/svg"><path d="M.807 5.833h36.447l-2.662 2.74a.85.85 0 0 0-.237.59.85.85 0 0 0 .237.592.797.797 0 0 0 .573.245c.215 0 .42-.088.572-.245l4.033-4.163a.836.836 0 0 0 .17-.275.857.857 0 0 0 0-.633.836.836 0 0 0-.17-.275L35.737.246A.804.804 0 0 0 35.165 0a.784.784 0 0 0-.573.246.834.834 0 0 0-.238.591.855.855 0 0 0 .238.591l2.662 2.74H.807a.794.794 0 0 0-.57.244A.847.847 0 0 0 0 5c0 .221.085.433.236.59a.794.794 0 0 0 .57.243Z" fill="#043636"/></svg>