<svg id="Layer_1" data-name="Layer 1" xmlns="http://www.w3.org/2000/svg" viewBox="0 0 32 32"><defs><style>.cls-1{fill:#fff;}.cls-2{fill:#6c04ee;}</style></defs><circle class="cls-1" cx="16" cy="16" r="16"/><circle class="cls-2" cx="16" cy="16" r="15.6"/><path class="cls-1" d="M18.58,16.19a1.51,1.51,0,0,0-.9.29l-2.64-2a2.25,2.25,0,0,0,.07-.52,2.09,2.09,0,0,0-.07-.51l2.56-2a1.58,1.58,0,0,0,1,.34,1.77,1.77,0,0,0,1.68-1.86,1.69,1.69,0,1,0-3.37,0,2.58,2.58,0,0,0,0,.4l-2.63,2a1.49,1.49,0,0,0-.88-.28,1.77,1.77,0,0,0-1.68,1.86,1.77,1.77,0,0,0,1.68,1.86,1.55,1.55,0,0,0,.88-.27l2.65,2a2,2,0,0,0-.06.49,1.69,1.69,0,1,0,1.69-1.86Z"/><path class="cls-1" d="M13.42,15.81a1.51,1.51,0,0,0,.9-.29l2.64,2a2.25,2.25,0,0,0-.07.52,2.09,2.09,0,0,0,.07.51l-2.56,2a1.58,1.58,0,0,0-1-.34,1.87,1.87,0,0,0,0,3.72,1.78,1.78,0,0,0,1.69-1.86,2.58,2.58,0,0,0,0-.4l2.63-2a1.49,1.49,0,0,0,.88.28,1.87,1.87,0,0,0,0-3.72,1.55,1.55,0,0,0-.88.27l-2.65-2a2,2,0,0,0,.06-.49,1.78,1.78,0,0,0-1.69-1.86A1.77,1.77,0,0,0,11.74,14,1.77,1.77,0,0,0,13.42,15.81Z"/></svg>