<svg id="Layer_1" data-name="Layer 1" xmlns="http://www.w3.org/2000/svg" viewBox="0 0 16 16"><defs><style>.cls-1{fill:#fff;}.cls-2{fill:#6c04ee;}</style></defs><circle class="cls-1" cx="8" cy="8" r="8"/><circle class="cls-2" cx="8" cy="8" r="7.8"/><path class="cls-1" d="M9.29,8.09a.78.78,0,0,0-.45.15l-1.32-1a1.07,1.07,0,0,0,0-.25,1.09,1.09,0,0,0,0-.26l1.28-1a.79.79,0,0,0,.49.17A.89.89,0,0,0,10.13,5,.89.89,0,0,0,9.29,4,.89.89,0,0,0,8.45,5a.65.65,0,0,0,0,.2l-1.32,1A.84.84,0,0,0,6.71,6,.89.89,0,0,0,5.87,7a.89.89,0,0,0,.84.93.77.77,0,0,0,.44-.14l1.33,1a1,1,0,0,0,0,.24.89.89,0,0,0,.84.94.94.94,0,0,0,0-1.87Z"/><path class="cls-1" d="M6.71,7.91a.78.78,0,0,0,.45-.15l1.32,1a1.07,1.07,0,0,0,0,.25,1.09,1.09,0,0,0,0,.26l-1.28,1a.79.79,0,0,0-.49-.17.93.93,0,0,0,0,1.86A.89.89,0,0,0,7.55,11a.65.65,0,0,0,0-.2l1.32-1a.84.84,0,0,0,.44.13.93.93,0,0,0,0-1.86.77.77,0,0,0-.44.14l-1.33-1a1,1,0,0,0,0-.24A.89.89,0,0,0,6.71,6,.9.9,0,0,0,5.87,7,.89.89,0,0,0,6.71,7.91Z"/></svg>