<svg xmlns="http://www.w3.org/2000/svg" width="35" height="30" fill="none"><g fill="#7638F9" clip-path="url(#a)"><path d="M0 21.6a6.329 6.329 0 0 1 1.895-4.324A572.706 572.706 0 0 1 9.24 10.02c2.717-2.625 6.828-2.59 9.57.034.51.484 1.014.97 1.49 1.482 1.564 1.688 2.143 3.666 1.72 5.92-.125.671-.714 1.09-1.342.975-.667-.122-1.061-.694-.939-1.386.288-1.626-.166-3.013-1.361-4.162-.444-.428-.87-.873-1.32-1.293-1.725-1.606-4.411-1.634-6.102 0a481.119 481.119 0 0 0-7.425 7.333c-1.608 1.622-1.604 4.283-.04 5.953a29.034 29.034 0 0 0 1.701 1.68c1.706 1.547 4.365 1.514 6.05-.098 1.441-1.377 2.844-2.796 4.258-4.197.342-.338.734-.504 1.22-.36.201.052.384.159.527.308.144.149.242.335.285.536a1.056 1.056 0 0 1-.302 1.06c-1.5 1.488-2.965 3.014-4.52 4.444-2.579 2.373-6.604 2.319-9.169-.064a44.006 44.006 0 0 1-1.677-1.652C.653 25.285-.006 23.625 0 21.6Z"/><path d="M26.797 0c1.808.035 3.38.611 4.677 1.836.693.654 1.394 1.312 2.002 2.04 2.147 2.57 2.016 6.403-.331 8.789A375.105 375.105 0 0 1 25.727 20c-2.705 2.595-6.759 2.56-9.49-.008a30.207 30.207 0 0 1-1.566-1.558c-1.547-1.683-2.123-3.65-1.698-5.892.127-.673.712-1.09 1.34-.977.666.12 1.064.694.94 1.385-.291 1.626.162 3.013 1.36 4.16.438.42.853.857 1.294 1.27 1.75 1.64 4.432 1.672 6.156.005 2.483-2.402 4.94-4.829 7.37-7.28 1.661-1.677 1.631-4.361-.007-6.063-.47-.486-.95-.962-1.44-1.428-1.851-1.759-4.553-1.738-6.372.049-1.387 1.363-2.77 2.73-4.15 4.1-.333.33-.724.473-1.192.337a1.122 1.122 0 0 1-.528-.307 1.102 1.102 0 0 1-.285-.536 1.056 1.056 0 0 1 .3-1.06c1.508-1.496 2.998-3.014 4.546-4.469C23.555.551 25.103.036 26.797 0Z"/></g><defs><clipPath id="a"><path fill="#fff" d="M0 0h35v30H0z"/></clipPath></defs></svg>