<svg width="30" height="30" fill="none" xmlns="http://www.w3.org/2000/svg"><path d="m11.927 20.215 4.143-12.43a.879.879 0 0 0-1.667-.555L10.26 19.66a.879.879 0 0 0 1.667.555ZM18.137 16.36a2.64 2.64 0 0 0 2.636-2.637 2.64 2.64 0 0 0-2.636-2.637 2.64 2.64 0 0 0-2.637 2.637 2.64 2.64 0 0 0 2.637 2.637Zm0-3.516a.88.88 0 0 1 0 1.758.88.88 0 0 1 0-1.758ZM8.193 11.086a2.64 2.64 0 0 0-2.636 2.637 2.64 2.64 0 0 0 2.636 2.637 2.64 2.64 0 0 0 2.637-2.637 2.64 2.64 0 0 0-2.637-2.637Zm0 3.516a.88.88 0 0 1 0-1.758.88.88 0 0 1 0 1.758Z" fill="#7638F9"/><path d="M29.825 10.899 26.76 6.812l.12-.837a.879.879 0 0 0-.25-.746l-1.864-1.864 1.865-1.864A.879.879 0 1 0 25.388.258l-1.865 1.864L21.66.258a.88.88 0 0 0-.746-.249l-8.7 1.243a.879.879 0 0 0-.498.249L.943 12.273a3.226 3.226 0 0 0 0 4.558l9.115 9.114c.186.187.39.345.607.476v.357A3.226 3.226 0 0 0 13.886 30h12.89A3.226 3.226 0 0 0 30 26.778V11.426a.879.879 0 0 0-.175-.527Zm-27.64 4.689a1.466 1.466 0 0 1 0-2.072L12.752 2.95l7.976-1.14 1.553 1.554-1.243 1.243-.621-.621a.879.879 0 0 0-1.243 1.242l2.486 2.486a.876.876 0 0 0 1.243 0 .879.879 0 0 0 0-1.243l-.622-.621 1.243-1.243 1.554 1.554-1.14 7.975-10.565 10.566a1.455 1.455 0 0 1-1.035.429c-.392 0-.76-.153-1.036-.43l-9.115-9.115Zm26.058 11.19c0 .807-.657 1.464-1.465 1.464h-12.89c-.772 0-1.406-.599-1.461-1.356a3.21 3.21 0 0 0 2.188-.94l10.773-10.773a.879.879 0 0 0 .248-.497l.772-5.403 1.835 2.446v15.059Z" fill="#7638F9"/></svg>