<svg width="30" height="30" fill="none" xmlns="http://www.w3.org/2000/svg"><g clip-path="url(#a)" fill="#7638F9"><path d="M21.956 20.974c.119.083.233.172.341.269a835.31 835.31 0 0 1 3.234 3.233c.282.282.28.444 0 .715-.13.133-.262.266-.395.395-.244.237-.417.24-.665 0a597.13 597.13 0 0 1-2.389-2.387l-1.195-1.195a4.434 4.434 0 0 1-3.7.646 4.346 4.346 0 0 1-2.524-1.791 4.444 4.444 0 0 1 .607-5.678 4.434 4.434 0 0 1 5.69-.386c1.78 1.294 2.488 3.923.996 6.179Zm-6.772-2.591a3.162 3.162 0 0 0 1.975 2.896 3.153 3.153 0 0 0 4.28-2.333 3.163 3.163 0 0 0-1.358-3.232 3.153 3.153 0 0 0-4.668 1.452 3.16 3.16 0 0 0-.229 1.217ZM9.57 16.078H8.512v2.118H5.305v-1.052h2.123v-1.066H4.225v-1.066h1.05v-1.075h1.08v1.046h1.07v-2.165H5.24l.064-1.037H8.49v1.04h1.085v-1.037h1.075v1.057h1.098v1.065h1.054v1.08h-1.05v1.11h-1.068v-2.172H8.517v1.077h1.04v1.088l.013-.011ZM10.646 4.245v6.424H4.214V4.245h6.432ZM9.575 5.32a1.176 1.176 0 0 0-.129-.02H5.489c-.222 0-.222.118-.222.269v3.748c0 .249.074.313.313.31 1.249-.01 2.498 0 3.746 0 .076 0 .153 0 .246-.013l.003-4.294ZM10.65 25.75H4.22v-6.424h6.432v6.424Zm-5.353-5.358v4.288h4.276v-4.288H5.297ZM25.726 4.245v6.426h-6.42V4.245h6.42ZM24.648 9.6V5.313h-4.274V9.6h4.274Z"/><path d="M1.353 8.612h.144L4.418.013v-.15a4.583 4.583 0 0 0-3.23 1.352 4.593 4.593 0 0 0-1.336 3.24V8.611h1.501ZM8.446 30.141h.15V28.482h-.49c-.41 0-.82.003-1.228.005-.813.005-1.623.01-2.435-.005H4.44a2.915 2.915 0 0 1-2.719-1.846 2.926 2.926 0 0 1-.205-1.138V21.392H-.148v4.08a4.595 4.595 0 0 0 2.865 4.334c.57.231 1.18.345 1.796.335h3.933ZM21.393-.13l.151.002c.491.005.986-.002 1.481-.01 1.127-.016 2.26-.033 3.37.091l-5.002-.082Zm0 0v.152m0-.151v.151m0 0V1.354h.15m-.15-1.332.15 1.332m0 0v.144h3.879c.899 0 1.66.317 2.198.85.537.533.86 1.29.866 2.189V8.599h1.607l.022-.125c.008-.051.014-.103.017-.155v-.008c0-.454.004-.91.009-1.367.008-.918.016-1.84-.009-2.758-.057-2.063-1.659-4.002-3.737-4.233l-4.852 1.401ZM28.49 21.386h1.654V25.557h-.15a4.407 4.407 0 0 1-4.298 4.425l2.794-8.596Zm0 0-.004.146-.009.315V25.522a2.885 2.885 0 0 1-2.624 2.928h-.002c-.579.058-1.162.05-1.755.04-.214-.002-.43-.006-.648-.006h-2.053v1.609l.125.021c.051.01.103.015.155.018h.008c.443 0 .888.004 1.334.008a75.86 75.86 0 0 0 2.682-.008l2.791-8.746Z" stroke="#7638F9" stroke-width=".3"/><path d="M12.818 5.282v-1.03h2.156v2.132h1.089V7.46h-2.2.01V5.269h-1.07l.015.013Z"/><path d="M16.062 10.718v-1.11h-1.066V8.55h1.073V7.44h2.112v1.088h-1.06v2.193l.01-.01h-1.07l.001.006Z"/><path d="M17.114 10.718h1.084v1.052h1.065v1.057c-.087 0-.158.011-.222.011h-2.979v-1.065h1.072V10.7l-.02.018ZM13.869 7.46v2.13h-2.107V8.546h1.056V7.463h1.07l-.02-.002Z"/><path d="M12.818 7.463h-1.05v-2.18h1.05v2.19-.01ZM17.15 4.243h1.026v2.125H17.15V4.243ZM13.854 11.797h1.166l-.057 1.035h-1.03l-.062-1.035h-.018ZM10.693 17.144H9.57v-1.066h1.127v1.07l-.004-.004ZM22.523 12.827V11.79h1.045v1.037h-1.045ZM11.744 16.091h1.058v1.053h-1.047v-1.066l-.01.013Z"/><path d="M11.769 18.19h-1.076v-1.046h1.069c0 .35.011.702.018 1.052l-.011-.006ZM5.239 12.818l.055 1.073H4.225v-1.066h1.02l-.006-.007ZM13.86 11.79l-1.045-.013v-1.07h1.032v1.081l.013.002ZM15.02 11.797l-.051-1.08h1.098v-.01 1.072l-1.054.018h.007ZM12.802 21.44H11.77v-1.03h1.03v1.03ZM11.755 12.847v-1.063h1.07v1.061h-1.072l.002.002Z"/><path d="m11.764 18.196 1.036.05v1.03h-1.031v-1.084l-.005.004ZM11.766 22.548h1.036v1.033h-1.034l-.002-1.033ZM21.423 11.79v1.029h-1.04V11.79h1.04ZM6.37 8.51v-2.1h2.11v2.1H6.37ZM6.385 21.474H8.49v2.111H6.385v-2.111ZM23.568 8.529h-2.116V6.415h2.114l.002 2.114Z"/></g><defs><clipPath id="a"><path fill="#fff" d="M0 0h30v30H0z"/></clipPath></defs></svg>