<svg width="29" height="30" fill="none" xmlns="http://www.w3.org/2000/svg"><g clip-path="url(#a)" fill="#7638F9"><path d="M23.595 20.943v6.973c0 .41-.082.804-.302 1.157-.376.6-.938.875-1.628.924-.064.005-.128.002-.192.002H2.12c-.468 0-.905-.094-1.29-.365-.545-.383-.786-.932-.824-1.58-.005-.07-.002-.136-.002-.205C0 19.326.003 10.803 0 2.28 0 1.718.128 1.203.48.756c.369-.47.86-.71 1.45-.75.074-.006.145-.003.217-.003 6.431 0 12.86 0 19.29-.003.501 0 .961.115 1.355.434.452.365.693.85.777 1.417.023.153.023.304.023.457 0 2.533 0 5.069.003 7.602a.604.604 0 0 1-.082.311l-1.999 3.572a.98.98 0 0 1-.046.074c-.033-.053-.02-.104-.02-.15V2.316c0-.197.023-.174-.18-.174H2.312c-.164.003-.164.003-.164.164 0 8.464 0 16.928-.002 25.393 0 .127.028.16.158.16 6.329-.002 12.655-.002 18.984-.002.163 0 .163 0 .163-.166 0-.934 0-1.871-.002-2.806 0-.105.02-.197.071-.289.675-1.2 1.345-2.405 2.017-3.605.01-.018.023-.036.033-.05.01 0 .018 0 .026.002Z"/><path d="M17.772 24.392V23.23c0-.066.015-.122.049-.18 2.351-4.025 4.7-8.054 7.049-12.083.176-.302.355-.6.524-.904.046-.082.08-.097.164-.046.651.378 1.303.753 1.957 1.126.082.046.08.082.039.153a2126.82 2126.82 0 0 0-2.403 4.15 8067.319 8067.319 0 0 1-4.61 7.968c-.17.291-.338.58-.504.873a.371.371 0 0 1-.141.141c-.667.4-1.332.804-1.999 1.208-.033.02-.071.069-.11.038-.02-.015-.012-.072-.012-.107-.003-.39-.003-.782-.003-1.175ZM11.786 10.716c-2.549 0-5.097 0-7.645.003-.133 0-.161-.038-.159-.163.008-.422.005-.843.003-1.262 0-.079.018-.122.104-.11.02.003.044 0 .064 0h15.29c.17 0 .17 0 .17.174 0 .398-.006.8.002 1.198.002.125-.026.163-.159.163-2.558-.005-5.114-.002-7.67-.002ZM11.799 16.224h7.645c.166 0 .166 0 .166.16 0 .41-.005.818.002 1.224.003.117-.03.148-.148.148-2.996-.003-5.991-.003-8.984-.003-2.114 0-4.228 0-6.344.003-.12 0-.159-.023-.156-.15.007-.412.007-.825 0-1.237-.003-.114.028-.148.145-.148 2.561.006 5.117.003 7.674.003ZM9.96 5.513h5.808c.169 0 .169 0 .169.16 0 .404-.005.807.002 1.21.003.128-.028.162-.16.162-3.633-.005-7.268-.003-10.9-.003-.25 0-.503-.008-.754.003-.125.005-.145-.041-.143-.151.005-.411.005-.825 0-1.236-.002-.115.026-.15.146-.148 1.73.005 3.463.003 5.194.003h.639ZM9.958 12.552c1.94 0 3.88.003 5.82-.002.13 0 .164.033.161.16-.007.404-.002.807-.002 1.211 0 .16 0 .16-.166.16H7.055c-.98 0-1.958-.002-2.935.003-.107 0-.135-.03-.133-.135.006-.421.008-.843 0-1.261-.002-.118.036-.138.144-.138 1.94.002 3.882.002 5.827.002ZM9.958 19.592c1.94 0 3.88.003 5.82-.003.13 0 .164.034.159.161-.008.404-.003.807-.003 1.21 0 .161 0 .161-.168.161H7.71c-1.196 0-2.39-.002-3.586.003-.12 0-.148-.036-.145-.148.007-.411.007-.825 0-1.236-.003-.13.038-.15.158-.15 1.94.002 3.88.002 5.82.002ZM3.908 24.68a1.488 1.488 0 1 1 2.976-.001 1.488 1.488 0 0 1-2.976.002ZM11.599 24.701c0 .825-.667 1.489-1.495 1.489-.81 0-1.478-.68-1.475-1.5a1.477 1.477 0 0 1 1.49-1.475c.823 0 1.48.659 1.48 1.486ZM26.902 7.732l.061.035 1.97 1.129c.073.04.085.074.042.148-.248.421-.49.845-.731 1.271-.038.07-.072.075-.138.036a507.6 507.6 0 0 0-1.991-1.144c-.057-.033-.067-.058-.034-.117.25-.43.496-.863.744-1.292.016-.03.026-.066.077-.066Z"/></g><defs><clipPath id="a"><path fill="#fff" d="M0 0h29v30H0z"/></clipPath></defs></svg>