<svg width="32" height="30" fill="none" xmlns="http://www.w3.org/2000/svg"><path d="M20.71 22.987 10.357 18.34c-1.128 1.493-2.598 2.348-4.463 2.414a5.449 5.449 0 0 1-2.27-.382 5.493 5.493 0 0 1-1.917-1.288A5.72 5.72 0 0 1 .45 17.222a5.766 5.766 0 0 1 1.23-6.29 5.478 5.478 0 0 1 2.05-1.36 5.433 5.433 0 0 1 2.434-.321c1.747.136 3.117.98 4.187 2.374l10.34-4.709a5.83 5.83 0 0 1 .66-4.102A5.737 5.737 0 0 1 24.566.218a5.675 5.675 0 0 1 4.11.253 5.756 5.756 0 0 1 2.879 2.97 5.834 5.834 0 0 1 .162 4.153 5.768 5.768 0 0 1-2.64 3.19 5.678 5.678 0 0 1-4.076.578 5.725 5.725 0 0 1-3.407-2.332l-.214.099-8.12 3.696-1.86.853c-.056.026-.098.044-.08.124.18.786.18 1.603 0 2.389a.205.205 0 0 0 0 .04l10.35 4.643a5.703 5.703 0 0 1 1.706-1.598 5.646 5.646 0 0 1 2.198-.774 5.48 5.48 0 0 1 3.921.94 5.75 5.75 0 0 1 1.99 2.346 5.816 5.816 0 0 1-.622 5.919 5.717 5.717 0 0 1-2.432 1.873 5.66 5.66 0 0 1-5.818-.96 5.767 5.767 0 0 1-1.715-2.557 5.82 5.82 0 0 1-.162-3.085l-.026.01ZM2.291 15.002a3.486 3.486 0 0 0 .572 1.924c.374.57.908 1.015 1.533 1.279a3.398 3.398 0 0 0 3.736-.734c.482-.481.81-1.096.947-1.766a3.493 3.493 0 0 0-.184-2 3.455 3.455 0 0 0-1.253-1.56 3.406 3.406 0 0 0-1.9-.595 3.385 3.385 0 0 0-2.437.994 3.447 3.447 0 0 0-1.014 2.449v.01ZM26.29 2.32a3.405 3.405 0 0 0-1.906.58c-.565.38-1.006.92-1.266 1.552a3.493 3.493 0 0 0 .738 3.775 3.398 3.398 0 0 0 3.736.755 3.436 3.436 0 0 0 1.54-1.274c.377-.57.579-1.239.58-1.924a3.472 3.472 0 0 0-.993-2.458 3.408 3.408 0 0 0-2.429-1.015v.01Zm0 25.38c.678.002 1.341-.2 1.906-.579a3.454 3.454 0 0 0 1.266-1.551 3.493 3.493 0 0 0-.737-3.774 3.397 3.397 0 0 0-3.736-.757 3.436 3.436 0 0 0-1.54 1.273 3.485 3.485 0 0 0 .415 4.365 3.414 3.414 0 0 0 2.414 1.014l.012.01Z" fill="#7638F9"/></svg>