<svg id="Layer_1" data-name="Layer 1" xmlns="http://www.w3.org/2000/svg" viewBox="0 0 232 50"><defs><style>.cls-1{fill:#6c04ee;}</style></defs><path class="cls-1" d="M159.11,5.25a7.42,7.42,0,0,0-3.27.71,10.33,10.33,0,0,0-1,.55.53.53,0,0,0-.18.69.43.43,0,0,0,.59.21l.41-.21a7.26,7.26,0,0,1,7.07,0l.46.23a.44.44,0,0,0,.56-.24.48.48,0,0,0-.14-.62,2.48,2.48,0,0,0-.4-.26A8,8,0,0,0,159.11,5.25Zm.06,2.14c-.42.05-.85.09-1.28.17a5.73,5.73,0,0,0-2.17.9.52.52,0,0,0-.18.67.4.4,0,0,0,.57.22l.42-.2a5.3,5.3,0,0,1,5-.1c.22.1.43.22.65.31a.41.41,0,0,0,.55-.2.48.48,0,0,0-.09-.63,2.88,2.88,0,0,0-.35-.26A6.79,6.79,0,0,0,159.17,7.39Zm0,2.23a4.28,4.28,0,0,0-2.39.66,1.37,1.37,0,0,0-.27.22.51.51,0,0,0-.06.6.39.39,0,0,0,.53.21l.47-.23a3.27,3.27,0,0,1,2.46-.33,9.62,9.62,0,0,1,1.34.54.43.43,0,0,0,.59-.21.49.49,0,0,0-.14-.66l-.16-.12A4.21,4.21,0,0,0,159.19,9.62Zm-.14,2a2.48,2.48,0,0,0-1.62.67.48.48,0,0,0-.09.63.42.42,0,0,0,.58.2l.24-.14a1.81,1.81,0,0,1,2,0,2.2,2.2,0,0,0,.26.15A.43.43,0,0,0,161,13a.45.45,0,0,0-.06-.58,1.92,1.92,0,0,0-.34-.3A2.85,2.85,0,0,0,159.05,11.65Z"/><path class="cls-1" d="M159.11,5.25a8,8,0,0,1,4.06,1.06,2.48,2.48,0,0,1,.4.26.48.48,0,0,1,.14.62.44.44,0,0,1-.56.24l-.46-.23a7.26,7.26,0,0,0-7.07,0l-.41.21a.43.43,0,0,1-.59-.21.53.53,0,0,1,.18-.69,10.33,10.33,0,0,1,1-.55A7.42,7.42,0,0,1,159.11,5.25Z"/><path class="cls-1" d="M159.17,7.39a6.79,6.79,0,0,1,3.16.88,2.88,2.88,0,0,1,.35.26.48.48,0,0,1,.09.63.41.41,0,0,1-.55.2c-.22-.09-.43-.21-.65-.31a5.3,5.3,0,0,0-5,.1l-.42.2a.4.4,0,0,1-.57-.22.52.52,0,0,1,.18-.67,5.73,5.73,0,0,1,2.17-.9C158.32,7.48,158.75,7.44,159.17,7.39Z"/><path class="cls-1" d="M159.19,9.62a4.21,4.21,0,0,1,2.37.68l.16.12a.49.49,0,0,1,.14.66.43.43,0,0,1-.59.21,9.62,9.62,0,0,0-1.34-.54,3.27,3.27,0,0,0-2.46.33l-.47.23a.39.39,0,0,1-.53-.21.51.51,0,0,1,.06-.6,1.37,1.37,0,0,1,.27-.22A4.28,4.28,0,0,1,159.19,9.62Z"/><path class="cls-1" d="M159.05,11.65a2.85,2.85,0,0,1,1.53.42,1.92,1.92,0,0,1,.34.3A.45.45,0,0,1,161,13a.43.43,0,0,1-.54.22,2.2,2.2,0,0,1-.26-.15,1.81,1.81,0,0,0-2,0l-.24.14a.42.42,0,0,1-.58-.2.48.48,0,0,1,.09-.63A2.48,2.48,0,0,1,159.05,11.65Z"/><path class="cls-1" d="M158.14,49.58c-.26-.46-.75-.92-.74-1.38a9.6,9.6,0,0,0-1.77-5.32,18.08,18.08,0,0,1-2.69-7.24,3.74,3.74,0,0,1,.93-3.52c1-.9,2-.49,2.24.85.08.5.09,1.15.72.94.26-.09.5-.76.5-1.16,0-5.13,0-10.26,0-15.39,0-.29,0-.57,0-.86a1.88,1.88,0,1,1,3.7.05c0,3.28,0,6.56,0,9.84a2,2,0,0,0,0,.74,4.3,4.3,0,0,0,.54.77c.23-.25.58-.45.67-.75a6.92,6.92,0,0,0,.06-1.38,1.8,1.8,0,1,1,3.6,0c.06,1.21,0,2.42,0,3.63,0,.55,0,1.19.67,1.17s.63-.67.63-1.21c0-.28,0-.57,0-.85a1.94,1.94,0,0,1,1.64-1.93,1.74,1.74,0,0,1,1.9,1.57c.15,1,.09,2.06.14,3.09,0,.56-.2,1.39.63,1.39s.55-.8.58-1.34a7.45,7.45,0,0,1,.09-1.06,1.8,1.8,0,0,1,3.59.25c0,3.54.42,7.12-1,10.53A18.48,18.48,0,0,0,174,47.7a6.68,6.68,0,0,1-.65,1.88Z"/><path class="cls-1" d="M149.47,14c.75,0,1.49,0,2.24,0a1.27,1.27,0,0,1,1.34,1.36,1.24,1.24,0,0,1-1.34,1.34c-1.56,0-3.12,0-4.67,0a1.22,1.22,0,0,1-1.34-1.34A1.25,1.25,0,0,1,147,14C147.85,14,148.66,14,149.47,14Z"/><path class="cls-1" d="M169.05,16.73c-.75,0-1.49,0-2.24,0a1.24,1.24,0,0,1-1.32-1.36A1.25,1.25,0,0,1,166.84,14c1.56,0,3.11,0,4.67,0a1.22,1.22,0,0,1,1.31,1.36,1.22,1.22,0,0,1-1.34,1.33C170.67,16.75,169.86,16.73,169.05,16.73Z"/><path class="cls-1" d="M21.53,25.37a5,5,0,0,0-2.84.91L10.4,19.93a6.5,6.5,0,0,0,0-3.2l8.07-6.18a4.91,4.91,0,0,0,3.06,1.07,5.58,5.58,0,0,0,5.31-5.81A5.58,5.58,0,0,0,21.53,0a5.58,5.58,0,0,0-5.3,5.81,6.28,6.28,0,0,0,.12,1.24L8.08,13.38a4.91,4.91,0,0,0-2.78-.86A5.57,5.57,0,0,0,0,18.33a5.57,5.57,0,0,0,5.3,5.81,4.91,4.91,0,0,0,2.78-.86l8.34,6.38a6.41,6.41,0,0,0-.19,1.53A5.58,5.58,0,0,0,21.53,37a5.58,5.58,0,0,0,5.31-5.81A5.59,5.59,0,0,0,21.53,25.37Z"/><path class="cls-1" d="M5.3,24.2a4.94,4.94,0,0,0,2.84-.9l8.3,6.34a6.24,6.24,0,0,0,0,3.21L8.37,39A5,5,0,0,0,5.3,38,5.58,5.58,0,0,0,0,43.77a5.57,5.57,0,0,0,5.3,5.81,5.57,5.57,0,0,0,5.3-5.81,6.28,6.28,0,0,0-.12-1.24l8.28-6.33a5,5,0,0,0,2.77.86,5.58,5.58,0,0,0,5.31-5.81,5.59,5.59,0,0,0-5.31-5.82,5,5,0,0,0-2.77.86l-8.34-6.38a6.27,6.27,0,0,0,.18-1.52,5.57,5.57,0,0,0-5.3-5.81A5.57,5.57,0,0,0,0,18.39,5.57,5.57,0,0,0,5.3,24.2Z"/><path class="cls-1" d="M32.6,25.65a.88.88,0,0,1,.23-.63.73.73,0,0,1,.57-.26h1.77a.67.67,0,0,1,.54.26,1,1,0,0,1,.21.63V48a1,1,0,0,1-.21.63.67.67,0,0,1-.54.26H33.4a.73.73,0,0,1-.57-.26A.88.88,0,0,1,32.6,48Zm5.8,9.87a1,1,0,0,1,.21-.64.69.69,0,0,1,.56-.25H51.62v-9a.88.88,0,0,1,.24-.63.73.73,0,0,1,.54-.26h1.68a.79.79,0,0,1,.59.26.88.88,0,0,1,.24.63V48a.88.88,0,0,1-.24.63.79.79,0,0,1-.59.26H52.4a.73.73,0,0,1-.54-.26.88.88,0,0,1-.24-.63V37.85H39.17a.7.7,0,0,1-.56-.23A.89.89,0,0,1,38.4,37Z"/><path class="cls-1" d="M54.08,49.65H52.4a1.48,1.48,0,0,1-1.11-.5A1.65,1.65,0,0,1,50.85,48V38.62H39.17A1.48,1.48,0,0,1,38,38.13,1.61,1.61,0,0,1,37.63,37V35.52A1.74,1.74,0,0,1,38,34.4a1.48,1.48,0,0,1,1.16-.54H50.85V25.65a1.65,1.65,0,0,1,.44-1.15A1.47,1.47,0,0,1,52.4,24h1.68a1.55,1.55,0,0,1,1.16.5,1.7,1.7,0,0,1,.44,1.15V48a1.66,1.66,0,0,1-.45,1.15A1.51,1.51,0,0,1,54.08,49.65ZM51.62,37.09h.77V48c0,.08,0,.1,0,.11h1.65s.05,0,.05-.12V25.65c0-.08,0-.1,0-.11H52.4s0,0,0,.12v9.74H39.18s0,0,0,.13V37a.24.24,0,0,0,0,.09ZM35.17,49.65H33.4a1.5,1.5,0,0,1-1.15-.51A1.66,1.66,0,0,1,31.83,48V25.65a1.66,1.66,0,0,1,.42-1.14A1.5,1.5,0,0,1,33.4,24h1.77a1.44,1.44,0,0,1,1.14.54,1.72,1.72,0,0,1,.39,1.11V48a1.72,1.72,0,0,1-.39,1.11A1.44,1.44,0,0,1,35.17,49.65ZM35.11,25.5l-1.71,0s0,0,0,.12V48a.19.19,0,0,0,0,.12h1.75s0,0,0-.12V25.65C35.15,25.55,35.13,25.51,35.11,25.5Z"/><path class="cls-1" d="M85.62,48.14a3,3,0,0,1,.08.33.37.37,0,0,1-.42.42H82.89a.57.57,0,0,1-.52-.38L79.94,43H69.71q-.3,0-.3-.33a.53.53,0,0,1,0-.23l.94-2.06a.64.64,0,0,1,.64-.47h7.55L73.37,27.57,64.08,48.51a.57.57,0,0,1-.52.38H61.43a.38.38,0,0,1-.43-.42,2.13,2.13,0,0,1,.09-.33L71.2,25.65a1.68,1.68,0,0,1,.49-.63,1,1,0,0,1,.66-.26h2A1.09,1.09,0,0,1,75,25a1.79,1.79,0,0,1,.49.63Z"/><path class="cls-1" d="M85.28,49.65H82.89a1.31,1.31,0,0,1-1.22-.82l-2.23-5.12H69.71a1,1,0,0,1-1.07-1.09,1.38,1.38,0,0,1,.11-.55l.94-2A1.36,1.36,0,0,1,71,39.1h6.39l-4.06-9.6L64.78,48.82a1.31,1.31,0,0,1-1.22.83H61.43a1.14,1.14,0,0,1-1.2-1.18,1.83,1.83,0,0,1,.12-.55l0-.09L70.5,25.34a2.54,2.54,0,0,1,.7-.92A1.83,1.83,0,0,1,72.35,24h2a1.81,1.81,0,0,1,1.14.42,2.5,2.5,0,0,1,.71.91L86.36,47.92a1.86,1.86,0,0,1,.11.55A1.14,1.14,0,0,1,85.28,49.65ZM83,48.12h1.73L74.8,26a.92.92,0,0,0-.27-.35.33.33,0,0,0-.17-.08h-2a.3.3,0,0,0-.17.08,1.06,1.06,0,0,0-.28.35l-10,22.16h1.47l10-22.49,6.35,15-8.65,0-.7,1.53H80.45ZM70.16,42.7h0Z"/><path class="cls-1" d="M92.53,25.65a1,1,0,0,1,.21-.63.69.69,0,0,1,.55-.26h12.8a6,6,0,0,1,2.62.59,7.07,7.07,0,0,1,2.14,1.59,7.7,7.7,0,0,1,1.45,2.33,7.8,7.8,0,0,1,.53,2.88,8.09,8.09,0,0,1-.38,2.48,7.7,7.7,0,0,1-1.07,2.1,7.49,7.49,0,0,1-1.62,1.61,5.81,5.81,0,0,1-2,1l6.06,9.07a.63.63,0,0,1,.09.33c0,.16-.09.23-.26.23H111a1.15,1.15,0,0,1-.62-.21,1.91,1.91,0,0,1-.53-.53L104,39.54H99a.69.69,0,0,1-.55-.24.83.83,0,0,1-.22-.61V37.25a.83.83,0,0,1,.22-.61A.69.69,0,0,1,99,36.4h6.65a3.76,3.76,0,0,0,2.8-1.21,4.42,4.42,0,0,0,0-6,3.76,3.76,0,0,0-2.8-1.21H95.81V48.05a.81.81,0,0,1-.23.6.78.78,0,0,1-.58.24H93.29a.71.71,0,0,1-.55-.24.84.84,0,0,1-.21-.6Z"/><path class="cls-1" d="M113.64,49.7H111a1.84,1.84,0,0,1-1-.34,2.62,2.62,0,0,1-.76-.76l-5.56-8.3H99a1.48,1.48,0,0,1-1.13-.49,1.61,1.61,0,0,1-.41-1.12V37.25a1.65,1.65,0,0,1,.41-1.13A1.51,1.51,0,0,1,99,35.64h6.65a3,3,0,0,0,2.24-1,3.64,3.64,0,0,0,0-4.93,3,3,0,0,0-2.24-1H96.58v19.3A1.57,1.57,0,0,1,95,49.65H93.29a1.5,1.5,0,0,1-1.12-.48,1.65,1.65,0,0,1-.41-1.12V25.65a1.7,1.7,0,0,1,.39-1.12A1.46,1.46,0,0,1,93.29,24h12.8a6.75,6.75,0,0,1,3,.66,7.71,7.71,0,0,1,2.37,1.76A8.35,8.35,0,0,1,113,29a8.46,8.46,0,0,1,.59,3.16,8.64,8.64,0,0,1-.42,2.71A8.46,8.46,0,0,1,112,37.18,8.17,8.17,0,0,1,110.21,39a6.73,6.73,0,0,1-1.27.73L114.45,48a1.39,1.39,0,0,1,.22.75A1,1,0,0,1,113.64,49.7ZM104,38.77h.41l6,9a1.26,1.26,0,0,0,.32.33.51.51,0,0,0,.19.08h1.8l-6.23-9.33,1-.28a5.4,5.4,0,0,0,1.75-.83,6.54,6.54,0,0,0,2.4-3.34,7.15,7.15,0,0,0,.35-2.24,6.91,6.91,0,0,0-1.79-4.7A6.23,6.23,0,0,0,108.38,26a5.33,5.33,0,0,0-2.29-.5H93.3s0,0,0,.12v22.4a.55.55,0,0,0,0,.09l1.69,0,0-.07V27.22h10.62A4.51,4.51,0,0,1,109,28.67a5.16,5.16,0,0,1,0,7,4.5,4.5,0,0,1-3.35,1.45H99a.38.38,0,0,0,0,.08v1.44a.16.16,0,0,0,0,.1Z"/><path class="cls-1" d="M125.07,45.66h15.14a.73.73,0,0,1,.54.26.92.92,0,0,1,.23.63v1.5a.87.87,0,0,1-.23.58.73.73,0,0,1-.54.26H122.55a.73.73,0,0,1-.53-.26.82.82,0,0,1-.23-.58V25.65A.88.88,0,0,1,122,25a.73.73,0,0,1,.53-.26H140a.77.77,0,0,1,.58.26.92.92,0,0,1,.23.63v1.5a.87.87,0,0,1-.23.58A.77.77,0,0,1,140,28H125.07Zm2.35-10.1a.89.89,0,0,1,.21-.61.73.73,0,0,1,.55-.23h10.71a.74.74,0,0,1,.53.23.82.82,0,0,1,.24.61V37a.82.82,0,0,1-.24.61.7.7,0,0,1-.53.23H128.18a.7.7,0,0,1-.55-.23.89.89,0,0,1-.21-.61Z"/><path class="cls-1" d="M140.21,49.65H122.55a1.46,1.46,0,0,1-1.1-.51,1.61,1.61,0,0,1-.43-1.09V25.65a1.66,1.66,0,0,1,.43-1.14,1.42,1.42,0,0,1,1.1-.51H140a1.5,1.5,0,0,1,1.15.51,1.66,1.66,0,0,1,.43,1.14v1.5a1.61,1.61,0,0,1-.43,1.09,1.5,1.5,0,0,1-1.15.51H125.84V44.9h14.37a1.47,1.47,0,0,1,1.11.5,1.71,1.71,0,0,1,.43,1.15v1.5a1.61,1.61,0,0,1-.43,1.09A1.46,1.46,0,0,1,140.21,49.65ZM122.55,25.53s0,0,0,.12v22.4s0,0,0,.07h17.62V46.55c0-.08,0-.1,0-.12H124.3V27.22H140s0-.06,0-.07v-1.5c0-.08,0-.1,0-.12Zm16.34,13.09h-10.7a1.48,1.48,0,0,1-1.13-.49,1.61,1.61,0,0,1-.41-1.12V35.56a1.65,1.65,0,0,1,.41-1.12,1.47,1.47,0,0,1,1.13-.48h10.7a1.51,1.51,0,0,1,1.08.45,1.61,1.61,0,0,1,.46,1.15V37a1.59,1.59,0,0,1-.46,1.15A1.5,1.5,0,0,1,138.89,38.62Zm-10.7-3.14V37a.24.24,0,0,0,0,.09h10.69V37l0-1.53Z"/><path class="cls-1" d="M204,48.49a2.61,2.61,0,0,1,.08.32.38.38,0,0,1-.43.43h-2.38a.57.57,0,0,1-.52-.38l-2.43-5.56H188.11q-.3,0-.3-.33a.53.53,0,0,1,0-.23l.94-2.06a.63.63,0,0,1,.64-.47H197l-5.21-12.3-9.29,21a.57.57,0,0,1-.52.38h-2.13a.39.39,0,0,1-.43-.43,1.87,1.87,0,0,1,.09-.32L189.6,26a1.68,1.68,0,0,1,.49-.63,1,1,0,0,1,.66-.26h2a1,1,0,0,1,.66.26,1.79,1.79,0,0,1,.49.63Z"/><path class="cls-1" d="M203.67,50h-2.38a1.31,1.31,0,0,1-1.22-.82l-2.23-5.12h-9.73A1,1,0,0,1,187,43a1.23,1.23,0,0,1,.11-.55l.94-2.06a1.36,1.36,0,0,1,1.34-.91h6.39l-4.06-9.6-8.58,19.32A1.31,1.31,0,0,1,182,50h-2.13a1.15,1.15,0,0,1-1.2-1.19,1.85,1.85,0,0,1,.12-.54l0-.09L188.9,25.69a2.54,2.54,0,0,1,.7-.92,1.85,1.85,0,0,1,1.15-.43h2a1.82,1.82,0,0,1,1.14.43,2.5,2.5,0,0,1,.71.91l10.14,22.59a1.68,1.68,0,0,1,.12.54A1.14,1.14,0,0,1,203.67,50Zm-2.23-1.53h1.72l-10-22.16a.92.92,0,0,0-.27-.35.35.35,0,0,0-.17-.09h-2a.34.34,0,0,0-.18.09,1,1,0,0,0-.27.35l-10,22.16h1.47l10-22.49,6.35,15h-8.65l-.7,1.54h10.06Zm-12.89-5.42Z"/><path class="cls-1" d="M210.93,26a1,1,0,0,1,.21-.63.66.66,0,0,1,.55-.26h12.84a6,6,0,0,1,2.63.58,6.71,6.71,0,0,1,2.11,1.59,8.12,8.12,0,0,1,1.43,2.34,7.81,7.81,0,0,1-1.43,8.07,6.94,6.94,0,0,1-2.11,1.56,6,6,0,0,1-2.63.59h-7.12a.73.73,0,0,1-.56-.24.84.84,0,0,1-.21-.6V37.55a.87.87,0,0,1,.21-.61.73.73,0,0,1,.56-.24H224a3.82,3.82,0,0,0,1.56-.32,4.35,4.35,0,0,0,1.3-.89,4.14,4.14,0,0,0,.87-1.33,4.2,4.2,0,0,0,.32-1.66,4,4,0,0,0-.32-1.64,4.06,4.06,0,0,0-.87-1.31,4.35,4.35,0,0,0-1.3-.89,3.82,3.82,0,0,0-1.56-.32h-9.81V48.39A.84.84,0,0,1,214,49a.78.78,0,0,1-.58.24h-1.71a.71.71,0,0,1-.55-.24.87.87,0,0,1-.21-.61Z"/><path class="cls-1" d="M213.4,50h-1.71a1.45,1.45,0,0,1-1.12-.49,1.62,1.62,0,0,1-.42-1.12V26a1.75,1.75,0,0,1,.39-1.12,1.47,1.47,0,0,1,1.15-.54h12.84a6.89,6.89,0,0,1,3,.66,7.46,7.46,0,0,1,2.35,1.78,8.32,8.32,0,0,1,1.57,2.56,8.73,8.73,0,0,1,0,6.31,8.54,8.54,0,0,1-1.57,2.55,7.65,7.65,0,0,1-2.35,1.74,6.75,6.75,0,0,1-3,.66h-7.12a1.51,1.51,0,0,1-1.13-.48,1.65,1.65,0,0,1-.41-1.12V37.55a1.65,1.65,0,0,1,.41-1.13,1.51,1.51,0,0,1,1.13-.48H224a3.18,3.18,0,0,0,1.25-.26,3.4,3.4,0,0,0,1.06-.73,3.22,3.22,0,0,0,.71-1.08,3.63,3.63,0,0,0,.26-1.37,3.24,3.24,0,0,0-.26-1.34,3.28,3.28,0,0,0-.71-1.07,3.4,3.4,0,0,0-1.06-.73A3.18,3.18,0,0,0,224,29.1h-9V48.39a1.59,1.59,0,0,1-.46,1.15A1.56,1.56,0,0,1,213.4,50Zm-1.7-24.13s0,0,0,.13V48.39a.58.58,0,0,0,0,.1l1.69,0,0-.08V27.57H224a4.64,4.64,0,0,1,1.87.39A5,5,0,0,1,227.43,29a5.07,5.07,0,0,1,1,1.54,4.76,4.76,0,0,1,.38,1.94,5.09,5.09,0,0,1-.37,2,4.84,4.84,0,0,1-1,1.57,5,5,0,0,1-1.54,1.06,4.64,4.64,0,0,1-1.87.39h-6.6a.54.54,0,0,0,0,.08V39a.55.55,0,0,0,0,.09l7.11,0a5.33,5.33,0,0,0,2.29-.5,6.2,6.2,0,0,0,1.88-1.4A6.81,6.81,0,0,0,230,35.09a7.25,7.25,0,0,0,0-5.19,7.24,7.24,0,0,0-1.29-2.11,6,6,0,0,0-1.87-1.41,5.19,5.19,0,0,0-2.29-.51Z"/></svg>