<svg id="Layer_1" data-name="Layer 1" xmlns="http://www.w3.org/2000/svg" viewBox="0 0 464 100"><defs><style>.cls-1{fill:#6c04ee;}</style></defs><path class="cls-1" d="M318.23,10.5a15.12,15.12,0,0,0-6.56,1.42,22.57,22.57,0,0,0-2.06,1.1,1.09,1.09,0,0,0-.37,1.39.85.85,0,0,0,1.19.4c.27-.12.53-.26.8-.4a14.55,14.55,0,0,1,14.14,0c.31.16.61.34.93.47a.88.88,0,0,0,1.12-.48,1,1,0,0,0-.29-1.25,5.92,5.92,0,0,0-.79-.51A16,16,0,0,0,318.23,10.5Zm.12,4.27c-.86.11-1.72.19-2.56.35a11.67,11.67,0,0,0-4.35,1.79,1,1,0,0,0-.36,1.35.79.79,0,0,0,1.13.44,8.16,8.16,0,0,0,.84-.41,10.67,10.67,0,0,1,10.1-.2c.43.22.85.44,1.29.64a.84.84,0,0,0,1.1-.42.92.92,0,0,0-.19-1.24,3.58,3.58,0,0,0-.7-.53A13.67,13.67,0,0,0,318.35,14.77Zm0,4.46a8.58,8.58,0,0,0-4.78,1.33,2.27,2.27,0,0,0-.54.43,1.07,1.07,0,0,0-.13,1.22.76.76,0,0,0,1.06.4c.32-.13.63-.3.94-.45a6.59,6.59,0,0,1,4.92-.67,22.74,22.74,0,0,1,2.68,1.08.83.83,0,0,0,1.18-.41,1,1,0,0,0-.28-1.32,2.35,2.35,0,0,0-.32-.23A8.39,8.39,0,0,0,318.39,19.23Zm-.3,4.08a5,5,0,0,0-3.23,1.33,1,1,0,0,0-.18,1.25.85.85,0,0,0,1.17.4c.16-.08.31-.18.46-.27a3.62,3.62,0,0,1,4,0,4.1,4.1,0,0,0,.54.3A.9.9,0,0,0,322,25.9a.93.93,0,0,0-.12-1.16,3.54,3.54,0,0,0-.69-.6A5.68,5.68,0,0,0,318.09,23.31Z"/><path class="cls-1" d="M318.23,10.5a16,16,0,0,1,8.11,2.12,5.92,5.92,0,0,1,.79.51,1,1,0,0,1,.29,1.25.88.88,0,0,1-1.12.48c-.32-.13-.62-.31-.93-.47a14.55,14.55,0,0,0-14.14,0c-.27.14-.53.28-.8.4a.85.85,0,0,1-1.19-.4,1.09,1.09,0,0,1,.37-1.39,22.57,22.57,0,0,1,2.06-1.1A15.12,15.12,0,0,1,318.23,10.5Z"/><path class="cls-1" d="M318.35,14.77a13.67,13.67,0,0,1,6.3,1.77,3.58,3.58,0,0,1,.7.53.92.92,0,0,1,.19,1.24.84.84,0,0,1-1.1.42c-.44-.2-.86-.42-1.29-.64a10.67,10.67,0,0,0-10.1.2,8.16,8.16,0,0,1-.84.41.79.79,0,0,1-1.13-.44,1,1,0,0,1,.36-1.35,11.67,11.67,0,0,1,4.35-1.79C316.63,15,317.49,14.88,318.35,14.77Z"/><path class="cls-1" d="M318.39,19.23a8.39,8.39,0,0,1,4.73,1.38,2.35,2.35,0,0,1,.32.23,1,1,0,0,1,.28,1.32.83.83,0,0,1-1.18.41,22.74,22.74,0,0,0-2.68-1.08,6.59,6.59,0,0,0-4.92.67c-.31.15-.62.32-.94.45a.76.76,0,0,1-1.06-.4,1.07,1.07,0,0,1,.13-1.22,2.27,2.27,0,0,1,.54-.43A8.58,8.58,0,0,1,318.39,19.23Z"/><path class="cls-1" d="M318.09,23.31a5.68,5.68,0,0,1,3.07.83,3.54,3.54,0,0,1,.69.6A.93.93,0,0,1,322,25.9a.9.9,0,0,1-1.08.44,4.1,4.1,0,0,1-.54-.3,3.62,3.62,0,0,0-4,0c-.15.09-.3.19-.46.27a.85.85,0,0,1-1.17-.4,1,1,0,0,1,.18-1.25A5,5,0,0,1,318.09,23.31Z"/><path class="cls-1" d="M316.28,99.15c-.52-.91-1.49-1.83-1.49-2.75,0-4.07-1.5-7.43-3.54-10.64a36.44,36.44,0,0,1-5.37-14.48c-.39-2.64-.15-5.18,1.85-7s4.07-1,4.5,1.69c.16,1,.17,2.3,1.43,1.88.52-.17,1-1.5,1-2.31.07-10.26,0-20.52,0-30.78,0-.57,0-1.15,0-1.71.13-2.55,1.73-4.38,3.73-4.33s3.64,1.88,3.66,4.43c.05,6.55,0,13.11,0,19.66a4.26,4.26,0,0,0,0,1.48,7.77,7.77,0,0,0,1.08,1.54c.46-.48,1.17-.89,1.34-1.48a13.94,13.94,0,0,0,.12-2.76c.17-2.27,1.54-3.76,3.48-3.81a3.66,3.66,0,0,1,3.72,3.76c.12,2.42.05,4.85.06,7.27,0,1.08-.07,2.37,1.33,2.33s1.27-1.34,1.27-2.42c0-.57,0-1.14,0-1.71a3.9,3.9,0,0,1,3.28-3.86,3.49,3.49,0,0,1,3.81,3.15c.28,2,.17,4.11.27,6.17.06,1.13-.39,2.8,1.27,2.78s1.09-1.59,1.16-2.67a14.77,14.77,0,0,1,.17-2.11,3.6,3.6,0,0,1,7.18.49c0,7.08.85,14.23-1.9,21.06-1.71,4.24-1.73,8.85-1.83,13.43,0,1.26-.84,2.5-1.29,3.74Z"/><path class="cls-1" d="M298.94,28.05c1.49,0,3-.05,4.48,0a2.53,2.53,0,0,1,2.68,2.71,2.48,2.48,0,0,1-2.69,2.69c-3.11,0-6.23,0-9.34,0a2.46,2.46,0,0,1-2.67-2.69,2.5,2.5,0,0,1,2.67-2.7C295.69,28,297.32,28.05,298.94,28.05Z"/><path class="cls-1" d="M338.1,33.46c-1.49,0-3,0-4.47,0A2.46,2.46,0,0,1,331,30.74a2.5,2.5,0,0,1,2.7-2.68c3.11,0,6.23,0,9.34,0a2.44,2.44,0,0,1,2.63,2.72A2.45,2.45,0,0,1,343,33.45C341.35,33.51,339.72,33.46,338.1,33.46Z"/><path class="cls-1" d="M43.07,50.75a9.87,9.87,0,0,0-5.69,1.81L20.8,39.87a13,13,0,0,0,.41-3.21,12.87,12.87,0,0,0-.41-3.2L36.93,21.11a10,10,0,0,0,6.14,2.14c5.85,0,10.6-5.21,10.6-11.63S48.92,0,43.07,0,32.46,5.2,32.46,11.62a13.26,13.26,0,0,0,.24,2.47L16.16,26.76A9.91,9.91,0,0,0,10.6,25C4.75,25,0,30.24,0,36.66S4.75,48.29,10.6,48.29a9.91,9.91,0,0,0,5.56-1.72L32.83,59.33a12.65,12.65,0,0,0-.37,3C32.46,68.79,37.21,74,43.07,74s10.6-5.21,10.6-11.63S48.92,50.75,43.07,50.75Z"/><path class="cls-1" d="M10.6,48.41a9.86,9.86,0,0,0,5.69-1.82l16.58,12.7a12.73,12.73,0,0,0,0,6.41L16.74,78.05a9.93,9.93,0,0,0-6.14-2.14C4.75,75.91,0,81.11,0,87.53S4.75,99.15,10.6,99.15,21.21,94,21.21,87.53A13.35,13.35,0,0,0,21,85.06L37.51,72.4a9.91,9.91,0,0,0,5.56,1.72c5.85,0,10.6-5.21,10.6-11.63s-4.75-11.62-10.6-11.62a9.91,9.91,0,0,0-5.56,1.72L20.84,39.83a12.68,12.68,0,0,0,.37-3c0-6.42-4.75-11.62-10.61-11.62S0,30.36,0,36.78,4.75,48.41,10.6,48.41Z"/><path class="cls-1" d="M65.19,51.3A1.8,1.8,0,0,1,65.66,50a1.44,1.44,0,0,1,1.13-.52h3.54a1.34,1.34,0,0,1,1.1.52,1.92,1.92,0,0,1,.42,1.26V96a1.92,1.92,0,0,1-.42,1.26,1.37,1.37,0,0,1-1.1.52H66.79a1.47,1.47,0,0,1-1.13-.52A1.8,1.8,0,0,1,65.19,96ZM76.8,71a1.92,1.92,0,0,1,.42-1.26,1.4,1.4,0,0,1,1.11-.52h24.91v-18a1.77,1.77,0,0,1,.48-1.26,1.4,1.4,0,0,1,1.08-.52h3.37a1.52,1.52,0,0,1,1.17.52,1.8,1.8,0,0,1,.47,1.26V96a1.8,1.8,0,0,1-.47,1.26,1.56,1.56,0,0,1-1.17.52H104.8a1.43,1.43,0,0,1-1.08-.52,1.77,1.77,0,0,1-.48-1.26V75.71H78.33a1.46,1.46,0,0,1-1.11-.47A1.76,1.76,0,0,1,76.8,74Z"/><path class="cls-1" d="M108.17,99.3H104.8a3,3,0,0,1-2.22-1A3.33,3.33,0,0,1,101.7,96V77.23H78.33a2.92,2.92,0,0,1-2.25-1A3.24,3.24,0,0,1,75.25,74V71A3.42,3.42,0,0,1,76,68.8a2.93,2.93,0,0,1,2.3-1.08H101.7V51.3a3.32,3.32,0,0,1,.88-2.3,3,3,0,0,1,2.22-1h3.37a3.07,3.07,0,0,1,2.3,1,3.3,3.3,0,0,1,.88,2.3V96a3.32,3.32,0,0,1-.88,2.3A3.08,3.08,0,0,1,108.17,99.3Zm-4.93-25.12h1.54V96a.3.3,0,0,0,.07.23l3.32,0a.28.28,0,0,0,.1-.25V51.3a.3.3,0,0,0-.07-.23l-3.4,0c0,.05,0,.1,0,.25V70.78H78.35s0,.09,0,.25v3a.59.59,0,0,0,0,.19ZM70.33,99.3H66.79a3,3,0,0,1-2.28-1A3.35,3.35,0,0,1,63.65,96V51.3A3.35,3.35,0,0,1,64.51,49a3,3,0,0,1,2.28-1h3.54a2.92,2.92,0,0,1,2.29,1.08,3.45,3.45,0,0,1,.77,2.23V96a3.45,3.45,0,0,1-.77,2.23A2.9,2.9,0,0,1,70.33,99.3ZM70.23,51l-3.44,0a.54.54,0,0,0-.05.25V96a.36.36,0,0,0,.06.24h3.5s0-.1,0-.25V51.3A.45.45,0,0,0,70.23,51Z"/><path class="cls-1" d="M171.23,96.28a3.46,3.46,0,0,1,.17.65.75.75,0,0,1-.85.85h-4.78a1.1,1.1,0,0,1-1-.75L159.89,85.9H139.41c-.4,0-.59-.22-.59-.66a1.05,1.05,0,0,1,.08-.46l1.88-4.12a1.26,1.26,0,0,1,1.28-.93h15.1l-10.41-24.6L128.15,97a1.1,1.1,0,0,1-1,.75h-4.27a.75.75,0,0,1-.85-.85,4.66,4.66,0,0,1,.17-.65l20.22-45a3.36,3.36,0,0,1,1-1.26,2.07,2.07,0,0,1,1.32-.52h4A2,2,0,0,1,150,50a3.27,3.27,0,0,1,1,1.26Z"/><path class="cls-1" d="M170.55,99.3h-4.78a2.62,2.62,0,0,1-2.43-1.65l-4.46-10.22H139.41a2.07,2.07,0,0,1-2.14-2.19,2.57,2.57,0,0,1,.23-1.1L139.37,80a2.75,2.75,0,0,1,2.69-1.83h12.78L146.72,59,129.56,97.64a2.61,2.61,0,0,1-2.43,1.66h-4.27a2.27,2.27,0,0,1-2.39-2.37,3.4,3.4,0,0,1,.24-1.09l.06-.18,20.22-45a4.92,4.92,0,0,1,1.42-1.83A3.61,3.61,0,0,1,144.7,48h4a3.57,3.57,0,0,1,2.29.86,4.87,4.87,0,0,1,1.42,1.82l20.29,45.17a3.65,3.65,0,0,1,.24,1.09A2.28,2.28,0,0,1,170.55,99.3Zm-4.46-3h3.44L149.61,51.92a2.06,2.06,0,0,0-.55-.7.72.72,0,0,0-.35-.17h-4a.69.69,0,0,0-.35.18,1.89,1.89,0,0,0-.55.7L123.88,96.25h2.93l20-45,12.7,30-17.3,0-1.4,3.08H160.9ZM140.31,85.4h0Z"/><path class="cls-1" d="M185.05,51.3a1.87,1.87,0,0,1,.43-1.26,1.35,1.35,0,0,1,1.11-.52h25.59a11.94,11.94,0,0,1,5.25,1.17,13.82,13.82,0,0,1,4.26,3.18,15.12,15.12,0,0,1,2.9,4.68,15.32,15.32,0,0,1,1.07,5.75,15.79,15.79,0,0,1-.77,5,14.89,14.89,0,0,1-2.13,4.21,14.6,14.6,0,0,1-3.24,3.23,12.25,12.25,0,0,1-4,1.92l12.11,18.14a1.15,1.15,0,0,1,.17.65c0,.31-.17.47-.51.47h-5.37a2.27,2.27,0,0,1-1.24-.42,3.67,3.67,0,0,1-1.07-1.08L208,79.07H198a1.42,1.42,0,0,1-1.11-.46,1.78,1.78,0,0,1-.43-1.22v-2.9a1.78,1.78,0,0,1,.43-1.22,1.42,1.42,0,0,1,1.11-.46h13.31a7.52,7.52,0,0,0,5.59-2.43,8.82,8.82,0,0,0,0-12A7.53,7.53,0,0,0,211.33,56H191.62V96.09a1.66,1.66,0,0,1-.47,1.22,1.56,1.56,0,0,1-1.15.47h-3.41a1.43,1.43,0,0,1-1.11-.47,1.72,1.72,0,0,1-.43-1.22Z"/><path class="cls-1" d="M227.28,99.4h-5.37a3.76,3.76,0,0,1-2.09-.68,5.21,5.21,0,0,1-1.51-1.52L207.18,80.6H198a3,3,0,0,1-2.25-1,3.24,3.24,0,0,1-.83-2.24v-2.9a3.26,3.26,0,0,1,.83-2.24,3,3,0,0,1,2.25-1h13.31a5.94,5.94,0,0,0,4.47-2,7.29,7.29,0,0,0,0-9.86,6,6,0,0,0-4.47-2H193.16V96.09a3.14,3.14,0,0,1-.92,2.3,3.09,3.09,0,0,1-2.24.91h-3.41a3,3,0,0,1-2.26-1,3.27,3.27,0,0,1-.82-2.24V51.3a3.47,3.47,0,0,1,.78-2.24,2.93,2.93,0,0,1,2.3-1.07h25.59a13.64,13.64,0,0,1,5.92,1.32,15.75,15.75,0,0,1,4.74,3.53A17.11,17.11,0,0,1,226,58a16.91,16.91,0,0,1,1.17,6.32,17.34,17.34,0,0,1-.84,5.43A16.69,16.69,0,0,1,224,74.36a16.12,16.12,0,0,1-3.58,3.56,14.25,14.25,0,0,1-2.55,1.47l11,16.51a2.84,2.84,0,0,1,.42,1.5A2,2,0,0,1,227.28,99.4ZM208,77.54h.83l12.06,18a2.14,2.14,0,0,0,.63.64.72.72,0,0,0,.39.17h3.59L213,77.67l2.07-.54a10.66,10.66,0,0,0,3.5-1.68,13,13,0,0,0,2.9-2.88,13.79,13.79,0,0,0,1.92-3.79,14.29,14.29,0,0,0,.69-4.48,13.83,13.83,0,0,0-3.57-9.4,12.26,12.26,0,0,0-3.8-2.83,10.37,10.37,0,0,0-4.57-1H186.61s0,.08,0,.25V96.09a.38.38,0,0,0,0,.19l3.38,0,.08-.16V54.45h21.25a9,9,0,0,1,6.7,2.9,10.33,10.33,0,0,1,0,14.08,9,9,0,0,1-6.7,2.91H198a.66.66,0,0,1,0,.15v2.9a.44.44,0,0,0,0,.18Z"/><path class="cls-1" d="M250.14,91.32h30.29a1.43,1.43,0,0,1,1.06.52A1.76,1.76,0,0,1,282,93.1v3a1.65,1.65,0,0,1-.47,1.17,1.43,1.43,0,0,1-1.06.52H245.11a1.45,1.45,0,0,1-1.07-.52,1.69,1.69,0,0,1-.47-1.17V51.3A1.8,1.8,0,0,1,244,50a1.41,1.41,0,0,1,1.07-.52H280a1.47,1.47,0,0,1,1.15.52,1.8,1.8,0,0,1,.47,1.26v3a1.69,1.69,0,0,1-.47,1.17A1.49,1.49,0,0,1,280,56H250.14Zm4.69-20.2a1.75,1.75,0,0,1,.43-1.21,1.44,1.44,0,0,1,1.11-.47h21.41a1.48,1.48,0,0,1,1.07.47,1.65,1.65,0,0,1,.47,1.21V74a1.66,1.66,0,0,1-.47,1.22,1.48,1.48,0,0,1-1.07.47H256.37a1.44,1.44,0,0,1-1.11-.47,1.76,1.76,0,0,1-.43-1.22Z"/><path class="cls-1" d="M280.43,99.3H245.11a2.91,2.91,0,0,1-2.21-1,3.2,3.2,0,0,1-.87-2.2V51.3A3.32,3.32,0,0,1,242.9,49a2.94,2.94,0,0,1,2.21-1H280a3,3,0,0,1,2.29,1,3.33,3.33,0,0,1,.87,2.29v3a3.22,3.22,0,0,1-.87,2.2,3,3,0,0,1-2.29,1H251.68V89.79h28.75a2.92,2.92,0,0,1,2.2,1,3.31,3.31,0,0,1,.87,2.29v3a3.26,3.26,0,0,1-.86,2.2A2.93,2.93,0,0,1,280.43,99.3ZM245.11,51.05c0,.05,0,.09,0,.25V96.09a.18.18,0,0,0,.06.14l35.25,0a1.18,1.18,0,0,1,0-.16v-3a.31.31,0,0,0-.07-.24H248.6V54.45H280c.08-.09.08-.13.08-.16v-3a.31.31,0,0,0-.07-.24Zm32.67,26.18H256.37a2.92,2.92,0,0,1-2.25-1,3.24,3.24,0,0,1-.83-2.24v-2.9a3.28,3.28,0,0,1,.83-2.24,3,3,0,0,1,2.25-1h21.41a3,3,0,0,1,2.16.92,3.18,3.18,0,0,1,.92,2.29V74a3.18,3.18,0,0,1-.92,2.3A3,3,0,0,1,277.78,77.23ZM256.38,71a.68.68,0,0,1,0,.15V74a.59.59,0,0,0,0,.19l21.38,0V74L277.72,71Z"/><path class="cls-1" d="M408,97a3.67,3.67,0,0,1,.17.66.75.75,0,0,1-.85.84h-4.78a1.1,1.1,0,0,1-1-.75l-4.86-11.13H376.21c-.4,0-.6-.21-.6-.65a1.09,1.09,0,0,1,.09-.47l1.88-4.11a1.26,1.26,0,0,1,1.28-.94H394L383.55,55.83,365,97.72a1.1,1.1,0,0,1-1,.75h-4.27a.75.75,0,0,1-.85-.84A3.67,3.67,0,0,1,359,97L379.2,52a3.42,3.42,0,0,1,1-1.26,2.09,2.09,0,0,1,1.32-.51h4a2.09,2.09,0,0,1,1.32.51,3.42,3.42,0,0,1,1,1.26Z"/><path class="cls-1" d="M407.35,100h-4.78a2.62,2.62,0,0,1-2.43-1.65l-4.47-10.23H376.21a2.06,2.06,0,0,1-2.14-2.18,2.57,2.57,0,0,1,.23-1.1l1.87-4.11a2.74,2.74,0,0,1,2.69-1.84h12.78L383.51,59.7,366.36,98.34a2.62,2.62,0,0,1-2.43,1.66h-4.27a2.28,2.28,0,0,1-2.39-2.37,3.56,3.56,0,0,1,.23-1.1l.07-.18,20.22-45a5,5,0,0,1,1.42-1.83,3.65,3.65,0,0,1,2.29-.85h4a3.65,3.65,0,0,1,2.29.85,5,5,0,0,1,1.42,1.82l20.29,45.18a3.47,3.47,0,0,1,.23,1.09A2.28,2.28,0,0,1,407.35,100Zm-4.46-3.06h3.44L386.41,52.62a1.89,1.89,0,0,0-.55-.7.67.67,0,0,0-.35-.17h-4a.67.67,0,0,0-.35.17,1.89,1.89,0,0,0-.55.7L360.68,96.94h2.93l20-45,12.69,30L379,82l-1.4,3.08H397.7ZM377.11,86.1h0Z"/><path class="cls-1" d="M421.85,52a1.91,1.91,0,0,1,.43-1.26,1.37,1.37,0,0,1,1.11-.51h25.67a11.94,11.94,0,0,1,5.25,1.17,13.31,13.31,0,0,1,4.22,3.18,15.55,15.55,0,0,1,2.86,4.67,16,16,0,0,1,0,11.5,15,15,0,0,1-2.86,4.63,13.65,13.65,0,0,1-4.22,3.14,11.94,11.94,0,0,1-5.25,1.16H434.82a1.42,1.42,0,0,1-1.11-.46,1.72,1.72,0,0,1-.43-1.22v-2.9a1.69,1.69,0,0,1,.43-1.21,1.4,1.4,0,0,1,1.11-.47H448a7.59,7.59,0,0,0,3.11-.66A8.15,8.15,0,0,0,453.76,71a8.31,8.31,0,0,0,1.75-2.67,8.69,8.69,0,0,0,.64-3.32,8.27,8.27,0,0,0-5-7.67,7.74,7.74,0,0,0-3.11-.65H428.42V96.79A1.64,1.64,0,0,1,428,98a1.54,1.54,0,0,1-1.15.47h-3.41a1.4,1.4,0,0,1-1.11-.47,1.69,1.69,0,0,1-.43-1.21Z"/><path class="cls-1" d="M426.8,100h-3.41a3,3,0,0,1-2.26-1,3.3,3.3,0,0,1-.82-2.24V52a3.44,3.44,0,0,1,.78-2.23,2.93,2.93,0,0,1,2.3-1.07h25.67A13.47,13.47,0,0,1,455,50a15.17,15.17,0,0,1,4.71,3.54,17.19,17.19,0,0,1,3.13,5.13,17.49,17.49,0,0,1,0,12.63,16.64,16.64,0,0,1-3.14,5.09A15.34,15.34,0,0,1,455,79.88a13.55,13.55,0,0,1-5.93,1.32H434.82a2.92,2.92,0,0,1-2.25-1,3.23,3.23,0,0,1-.83-2.24v-2.9a3.26,3.26,0,0,1,.83-2.24,3,3,0,0,1,2.25-1H448a6.11,6.11,0,0,0,2.49-.52,7,7,0,0,0,2.13-1.45,7,7,0,0,0,1.42-2.18A7.07,7.07,0,0,0,454.6,65a6.8,6.8,0,0,0-.51-2.67,6.91,6.91,0,0,0-1.43-2.15,7,7,0,0,0-2.13-1.45A6.11,6.11,0,0,0,448,58.2H430V96.79a3.16,3.16,0,0,1-.92,2.29A3.1,3.1,0,0,1,426.8,100Zm-3.39-48.25s0,.08,0,.24v44.8a.36.36,0,0,0,0,.18l3.38,0,.08-.15V55.14H448a9.3,9.3,0,0,1,3.74.79A9.81,9.81,0,0,1,457.69,65a10.15,10.15,0,0,1-.76,3.9,9.62,9.62,0,0,1-5.15,5.26,9.3,9.3,0,0,1-3.74.79H434.83s0,.07,0,.15V78a.38.38,0,0,0,0,.19l14.21,0a10.52,10.52,0,0,0,4.58-1,12.3,12.3,0,0,0,3.75-2.78A13.82,13.82,0,0,0,460,70.18a14.48,14.48,0,0,0,0-10.37,14.2,14.2,0,0,0-2.58-4.23,11.91,11.91,0,0,0-3.74-2.82,10.52,10.52,0,0,0-4.58-1Z"/></svg>