<svg id="Layer_1" data-name="Layer 1" xmlns="http://www.w3.org/2000/svg" viewBox="0 0 300 65"><defs><style>.cls-1{fill:#262262;}</style></defs><path class="cls-1" d="M206.44,6.87a9.71,9.71,0,0,0-4.26.92,14.52,14.52,0,0,0-1.34.73.71.71,0,0,0-.23.9.56.56,0,0,0,.77.27l.52-.27a9.36,9.36,0,0,1,9.17,0c.2.11.4.22.6.31a.57.57,0,0,0,.73-.31.62.62,0,0,0-.19-.82,4.52,4.52,0,0,0-.51-.34A10.25,10.25,0,0,0,206.44,6.87Zm.07,2.79c-.55.07-1.11.12-1.66.22A7.58,7.58,0,0,0,202,11.06a.68.68,0,0,0-.23.88.51.51,0,0,0,.73.29,5.6,5.6,0,0,0,.55-.27,6.86,6.86,0,0,1,6.55-.13c.28.14.55.29.84.42a.55.55,0,0,0,.71-.27.62.62,0,0,0-.12-.82,2.19,2.19,0,0,0-.46-.34A8.7,8.7,0,0,0,206.51,9.66Zm0,2.92a5.46,5.46,0,0,0-3.1.87,1.35,1.35,0,0,0-.35.28.68.68,0,0,0-.08.79.49.49,0,0,0,.68.27c.21-.09.41-.2.61-.3a4.32,4.32,0,0,1,3.2-.44,16.12,16.12,0,0,1,1.73.71.54.54,0,0,0,.77-.27.65.65,0,0,0-.18-.86,1.37,1.37,0,0,0-.21-.15A5.42,5.42,0,0,0,206.54,12.58Zm-.19,2.66a3.17,3.17,0,0,0-2.1.88.62.62,0,0,0-.12.81.54.54,0,0,0,.76.26,1.83,1.83,0,0,0,.3-.18,2.34,2.34,0,0,1,2.62,0,3,3,0,0,0,.35.19.56.56,0,0,0,.7-.28.61.61,0,0,0-.08-.76,2,2,0,0,0-.44-.39A3.71,3.71,0,0,0,206.35,15.24Z"/><path class="cls-1" d="M206.44,6.87a10.25,10.25,0,0,1,5.26,1.38,4.52,4.52,0,0,1,.51.34.62.62,0,0,1,.19.82.57.57,0,0,1-.73.31c-.2-.09-.4-.2-.6-.31a9.36,9.36,0,0,0-9.17,0l-.52.27a.56.56,0,0,1-.77-.27.71.71,0,0,1,.23-.9,14.52,14.52,0,0,1,1.34-.73A9.71,9.71,0,0,1,206.44,6.87Z"/><path class="cls-1" d="M206.51,9.66a8.7,8.7,0,0,1,4.09,1.16,2.19,2.19,0,0,1,.46.34.62.62,0,0,1,.12.82.55.55,0,0,1-.71.27c-.29-.13-.56-.28-.84-.42a6.86,6.86,0,0,0-6.55.13,5.6,5.6,0,0,1-.55.27.51.51,0,0,1-.73-.29.68.68,0,0,1,.23-.88,7.58,7.58,0,0,1,2.82-1.18C205.4,9.78,206,9.73,206.51,9.66Z"/><path class="cls-1" d="M206.54,12.58a5.42,5.42,0,0,1,3.07.9,1.37,1.37,0,0,1,.21.15.65.65,0,0,1,.18.86.54.54,0,0,1-.77.27,16.12,16.12,0,0,0-1.73-.71,4.32,4.32,0,0,0-3.2.44c-.2.1-.4.21-.61.3a.49.49,0,0,1-.68-.27.68.68,0,0,1,.08-.79,1.35,1.35,0,0,1,.35-.28A5.46,5.46,0,0,1,206.54,12.58Z"/><path class="cls-1" d="M206.35,15.24a3.71,3.71,0,0,1,2,.55,2,2,0,0,1,.44.39.61.61,0,0,1,.08.76.56.56,0,0,1-.7.28,3,3,0,0,1-.35-.19,2.34,2.34,0,0,0-2.62,0,1.83,1.83,0,0,1-.3.18.54.54,0,0,1-.76-.26.62.62,0,0,1,.12-.81A3.17,3.17,0,0,1,206.35,15.24Z"/><path class="cls-1" d="M205.17,64.84c-.34-.6-1-1.2-1-1.8a12.64,12.64,0,0,0-2.3-7,24.11,24.11,0,0,1-3.49-9.47,4.94,4.94,0,0,1,1.21-4.6c1.25-1.18,2.64-.64,2.91,1.11.11.66.11,1.5.93,1.22.34-.11.66-1,.66-1.51,0-6.71,0-13.42,0-20.13,0-.37,0-.74,0-1.12.09-1.66,1.13-2.86,2.43-2.82A2.65,2.65,0,0,1,209,21.65c0,4.29,0,8.57,0,12.86a2.84,2.84,0,0,0,0,1,6.09,6.09,0,0,0,.7,1c.3-.32.76-.59.87-1a8.88,8.88,0,0,0,.08-1.8,2.34,2.34,0,1,1,4.67,0c.07,1.58,0,3.17,0,4.75,0,.71,0,1.55.86,1.53s.82-.88.83-1.59c0-.37,0-.74,0-1.11a2.54,2.54,0,0,1,2.12-2.53,2.28,2.28,0,0,1,2.48,2.06c.18,1.33.11,2.69.17,4,0,.73-.25,1.83.83,1.81s.7-1,.75-1.74a9.2,9.2,0,0,1,.11-1.39,2.34,2.34,0,0,1,4.66.33c0,4.62.55,9.31-1.24,13.77-1.11,2.78-1.12,5.79-1.18,8.78a8.8,8.8,0,0,1-.84,2.45Z"/><path class="cls-1" d="M193.92,18.34c1,0,1.94,0,2.91,0a1.65,1.65,0,0,1,1.74,1.77,1.61,1.61,0,0,1-1.74,1.76c-2,0-4,0-6.06,0A1.6,1.6,0,0,1,189,20.12a1.64,1.64,0,0,1,1.74-1.77C191.82,18.31,192.87,18.34,193.92,18.34Z"/><path class="cls-1" d="M219.33,21.88c-1,0-1.94,0-2.9,0a1.61,1.61,0,0,1-1.72-1.78,1.63,1.63,0,0,1,1.75-1.75c2,0,4,0,6.06,0a1.59,1.59,0,0,1,1.7,1.78,1.59,1.59,0,0,1-1.74,1.74C221.43,21.91,220.38,21.88,219.33,21.88Z"/><path class="cls-1" d="M27.94,33.19a6.38,6.38,0,0,0-3.69,1.18l-10.76-8.3a8.51,8.51,0,0,0,.27-2.1,8.43,8.43,0,0,0-.27-2.09L24,13.8a6.4,6.4,0,0,0,4,1.4c3.8,0,6.88-3.4,6.88-7.6S31.74,0,27.94,0s-6.88,3.4-6.88,7.6a7.81,7.81,0,0,0,.16,1.62L10.48,17.5a6.4,6.4,0,0,0-3.6-1.13C3.08,16.37,0,19.78,0,24s3.08,7.61,6.88,7.61a6.4,6.4,0,0,0,3.6-1.13L21.3,38.8a8.1,8.1,0,0,0-.24,2c0,4.2,3.08,7.6,6.88,7.6s6.88-3.4,6.88-7.6S31.74,33.19,27.94,33.19Z"/><path class="cls-1" d="M6.88,31.66a6.39,6.39,0,0,0,3.69-1.19l10.76,8.3a8.26,8.26,0,0,0,0,4.19L10.86,51a6.45,6.45,0,0,0-4-1.4C3.08,49.64,0,53,0,57.24s3.08,7.6,6.88,7.6,6.88-3.4,6.88-7.6a8.72,8.72,0,0,0-.16-1.62l10.74-8.28a6.3,6.3,0,0,0,3.6,1.13c3.8,0,6.88-3.41,6.88-7.6s-3.08-7.6-6.88-7.6a6.37,6.37,0,0,0-3.6,1.12L13.52,26a8.61,8.61,0,0,0,.24-2c0-4.19-3.08-7.6-6.88-7.6S0,19.86,0,24.05,3.08,31.66,6.88,31.66Z"/><path class="cls-1" d="M42.29,33.55a1.21,1.21,0,0,1,.3-.83,1,1,0,0,1,.74-.34h2.3a.9.9,0,0,1,.71.34,1.29,1.29,0,0,1,.27.83V62.78a1.26,1.26,0,0,1-.27.82.87.87,0,0,1-.71.34h-2.3a.94.94,0,0,1-.74-.34,1.18,1.18,0,0,1-.3-.82Zm7.53,12.9a1.29,1.29,0,0,1,.27-.83.91.91,0,0,1,.72-.33H67V33.55a1.22,1.22,0,0,1,.31-.83,1,1,0,0,1,.7-.34h2.19a1,1,0,0,1,.76.34,1.22,1.22,0,0,1,.31.83V62.78a1.19,1.19,0,0,1-.31.82,1,1,0,0,1-.76.34H68a.92.92,0,0,1-.7-.34,1.19,1.19,0,0,1-.31-.82V49.51H50.81a.92.92,0,0,1-.72-.31,1.15,1.15,0,0,1-.27-.79Z"/><path class="cls-1" d="M70.17,64.94H68a2,2,0,0,1-1.44-.66,2.21,2.21,0,0,1-.57-1.5V50.51H50.81a1.91,1.91,0,0,1-1.46-.64,2.11,2.11,0,0,1-.53-1.46v-2a2.27,2.27,0,0,1,.5-1.46,1.93,1.93,0,0,1,1.49-.7H66V33.55a2.17,2.17,0,0,1,.57-1.5A1.93,1.93,0,0,1,68,31.38h2.19a2,2,0,0,1,1.49.67,2.13,2.13,0,0,1,.57,1.5V62.78a2.16,2.16,0,0,1-.57,1.5A2,2,0,0,1,70.17,64.94ZM67,48.51h1V62.78a.2.2,0,0,0,0,.15h2.15a.17.17,0,0,0,.06-.16V33.55c0-.1,0-.13,0-.15l-2.21,0s0,.07,0,.17V46.29H50.83s0,.05,0,.16v2a.45.45,0,0,0,0,.12ZM45.63,64.94h-2.3a1.93,1.93,0,0,1-1.48-.67,2.16,2.16,0,0,1-.56-1.49V33.55a2.2,2.2,0,0,1,.56-1.5,2,2,0,0,1,1.48-.67h2.3a1.9,1.9,0,0,1,1.48.71,2.27,2.27,0,0,1,.5,1.46V62.78a2.24,2.24,0,0,1-.5,1.45A1.87,1.87,0,0,1,45.63,64.94Zm-.07-31.59-2.23,0a.33.33,0,0,0,0,.17V62.78c0,.11,0,.14.05.15H45.6s0-.06,0-.16V33.55A.31.31,0,0,0,45.56,33.35Z"/><path class="cls-1" d="M111.08,63a3.59,3.59,0,0,1,.11.43.48.48,0,0,1-.55.55h-3.1a.71.71,0,0,1-.67-.49l-3.15-7.28H90.44c-.26,0-.39-.14-.39-.43a.67.67,0,0,1,.06-.3l1.21-2.69a.83.83,0,0,1,.83-.61H102L95.2,36.05,83.13,63.45a.7.7,0,0,1-.66.49H79.7a.48.48,0,0,1-.55-.55,3.59,3.59,0,0,1,.11-.43L92.38,33.55a2.24,2.24,0,0,1,.63-.83,1.38,1.38,0,0,1,.86-.34h2.6a1.38,1.38,0,0,1,.86.34,2.24,2.24,0,0,1,.63.83Z"/><path class="cls-1" d="M110.64,64.94h-3.1A1.7,1.7,0,0,1,106,63.86l-2.9-6.69H90.44a1.34,1.34,0,0,1-1.39-1.43A1.69,1.69,0,0,1,89.2,55l1.21-2.68a1.77,1.77,0,0,1,1.74-1.2h8.29L95.18,38.58,84.05,63.85a1.71,1.71,0,0,1-1.58,1.09H79.7a1.49,1.49,0,0,1-1.55-1.55,2.34,2.34,0,0,1,.15-.72l0-.12L91.46,33.14a3.39,3.39,0,0,1,.92-1.2,2.34,2.34,0,0,1,1.49-.56h2.6a2.34,2.34,0,0,1,1.49.56,3.56,3.56,0,0,1,.92,1.19L112,62.67a2.52,2.52,0,0,1,.15.72A1.49,1.49,0,0,1,110.64,64.94Zm-2.9-2H110L97.05,34a1.19,1.19,0,0,0-.35-.45.51.51,0,0,0-.23-.12h-2.6a.51.51,0,0,0-.23.12,1.15,1.15,0,0,0-.35.46l-12.93,29h1.9l13-29.42,8.23,19.62-11.22,0-.91,2h13.06ZM91,55.85Z"/><path class="cls-1" d="M120.05,33.55a1.29,1.29,0,0,1,.27-.83.92.92,0,0,1,.72-.34h16.6a7.71,7.71,0,0,1,3.41.77,8.89,8.89,0,0,1,2.76,2.08,10,10,0,0,1,2.58,6.82,10.46,10.46,0,0,1-.5,3.24A9.86,9.86,0,0,1,144.51,48a9.39,9.39,0,0,1-2.11,2.11,7.71,7.71,0,0,1-2.6,1.25l7.86,11.87a.82.82,0,0,1,.11.42c0,.21-.11.31-.33.31H144a1.41,1.41,0,0,1-.8-.28,2.2,2.2,0,0,1-.69-.7l-7.53-11.31h-6.47a.9.9,0,0,1-.72-.31,1.11,1.11,0,0,1-.28-.79v-1.9a1.11,1.11,0,0,1,.28-.79.9.9,0,0,1,.72-.31h8.63A4.83,4.83,0,0,0,140.71,46a5.77,5.77,0,0,0,0-7.83,4.83,4.83,0,0,0-3.62-1.59H124.31V62.84a1.07,1.07,0,0,1-.31.79,1,1,0,0,1-.75.31H121a.92.92,0,0,1-.72-.31,1.13,1.13,0,0,1-.27-.79Z"/><path class="cls-1" d="M147.44,65H144a2.43,2.43,0,0,1-1.35-.44,3.46,3.46,0,0,1-1-1L134.4,52.71h-5.94a1.93,1.93,0,0,1-1.47-.64,2.16,2.16,0,0,1-.53-1.46v-1.9a2.12,2.12,0,0,1,.54-1.46,1.89,1.89,0,0,1,1.46-.64h8.63a3.84,3.84,0,0,0,2.9-1.28,4.77,4.77,0,0,0,0-6.44,3.82,3.82,0,0,0-2.9-1.29H125.31V62.84a2.07,2.07,0,0,1-.6,1.5,2,2,0,0,1-1.46.6H121a1.89,1.89,0,0,1-1.46-.64,2.12,2.12,0,0,1-.54-1.46V33.55a2.3,2.3,0,0,1,.51-1.47,1.9,1.9,0,0,1,1.49-.7h16.6a8.62,8.62,0,0,1,3.84.87,9.94,9.94,0,0,1,3.08,2.31,11.2,11.2,0,0,1,2.83,7.49,11.57,11.57,0,0,1-.55,3.55,10.9,10.9,0,0,1-1.52,3A10.51,10.51,0,0,1,143,51a9.45,9.45,0,0,1-1.65,1l7.15,10.79a1.79,1.79,0,0,1,.28,1A1.28,1.28,0,0,1,147.44,65ZM134.93,50.71h.54l7.82,11.76a1.49,1.49,0,0,0,.41.42A.52.52,0,0,0,144,63h2.33L138.2,50.79l1.35-.35a6.87,6.87,0,0,0,2.26-1.1,8.47,8.47,0,0,0,1.89-1.89A9.23,9.23,0,0,0,144.94,45a9.41,9.41,0,0,0,.45-2.93,9,9,0,0,0-2.32-6.15,7.93,7.93,0,0,0-2.46-1.85,6.77,6.77,0,0,0-3-.67H121.05s0,.06,0,.17V62.84a.44.44,0,0,0,0,.12l2.19,0,.06-.1V35.6h13.78a5.84,5.84,0,0,1,4.35,1.9,6.79,6.79,0,0,1,0,9.21,5.84,5.84,0,0,1-4.35,1.9h-8.63s0,0,0,.1v1.9a.22.22,0,0,0,0,.12Z"/><path class="cls-1" d="M162.27,59.72h19.65a.92.92,0,0,1,.69.34,1.18,1.18,0,0,1,.3.82v2a1.11,1.11,0,0,1-.3.76.92.92,0,0,1-.69.34H159a.9.9,0,0,1-.69-.34,1.11,1.11,0,0,1-.3-.76V33.55a1.21,1.21,0,0,1,.3-.83.94.94,0,0,1,.69-.34h22.64a1,1,0,0,1,.75.34,1.21,1.21,0,0,1,.3.83v2a1.13,1.13,0,0,1-.3.77,1,1,0,0,1-.75.33H162.27Zm3-13.21a1.09,1.09,0,0,1,.28-.79.9.9,0,0,1,.72-.31H180.2a.92.92,0,0,1,.69.31,1.07,1.07,0,0,1,.31.79v1.9a1.09,1.09,0,0,1-.31.79.92.92,0,0,1-.69.31H166.31a.9.9,0,0,1-.72-.31,1.11,1.11,0,0,1-.28-.79Z"/><path class="cls-1" d="M181.92,64.94H159a1.9,1.9,0,0,1-1.43-.67,2.08,2.08,0,0,1-.56-1.43V33.55a2.18,2.18,0,0,1,.56-1.5,1.9,1.9,0,0,1,1.43-.67h22.64a2,2,0,0,1,1.49.67,2.18,2.18,0,0,1,.56,1.5v2a2.1,2.1,0,0,1-.56,1.44,2,2,0,0,1-1.49.66H163.27V58.72h18.65a1.9,1.9,0,0,1,1.43.66,2.2,2.2,0,0,1,.56,1.5v2a2.08,2.08,0,0,1-.56,1.43A1.91,1.91,0,0,1,181.92,64.94ZM159,33.38s0,.06,0,.17V62.84s0,0,0,.09h22.87a.51.51,0,0,1,0-.1v-2a.23.23,0,0,0,0-.16H161.27V35.6h20.37a.13.13,0,0,0,.05-.1v-2c0-.11,0-.14-.05-.16Zm21.2,17.13H166.31a1.89,1.89,0,0,1-1.46-.64,2.12,2.12,0,0,1-.54-1.46v-1.9a2.12,2.12,0,0,1,.54-1.46,1.89,1.89,0,0,1,1.46-.64H180.2a2,2,0,0,1,1.4.6,2.09,2.09,0,0,1,.6,1.5v1.9a2.09,2.09,0,0,1-.6,1.5A2,2,0,0,1,180.2,50.51Zm-13.88-4.1a.77.77,0,0,0,0,.1v1.9a.24.24,0,0,0,0,.12l13.87,0v-.1l0-2Z"/><path class="cls-1" d="M264.69,63.42a2,2,0,0,1,.11.42.48.48,0,0,1-.55.55h-3.1a.7.7,0,0,1-.66-.49l-3.16-7.27H244.05c-.26,0-.39-.15-.39-.43a.75.75,0,0,1,.06-.31l1.22-2.69a.82.82,0,0,1,.83-.61h9.79l-6.75-16.08L236.75,63.9a.71.71,0,0,1-.67.49h-2.77a.49.49,0,0,1-.55-.55,3.2,3.2,0,0,1,.11-.42L246,34a2.31,2.31,0,0,1,.63-.82,1.35,1.35,0,0,1,.86-.34h2.6a1.33,1.33,0,0,1,.86.34,2.23,2.23,0,0,1,.64.82Z"/><path class="cls-1" d="M264.25,65.39h-3.1a1.69,1.69,0,0,1-1.57-1.07l-2.9-6.69H244.05a1.35,1.35,0,0,1-1.39-1.43,1.66,1.66,0,0,1,.15-.72L244,52.79a1.77,1.77,0,0,1,1.74-1.2h8.29L248.79,39,237.66,64.31a1.7,1.7,0,0,1-1.58,1.08h-2.77a1.48,1.48,0,0,1-1.55-1.55,2.28,2.28,0,0,1,.16-.72l0-.11,13.12-29.42A3.24,3.24,0,0,1,246,32.4a2.39,2.39,0,0,1,1.49-.56h2.6a2.34,2.34,0,0,1,1.49.56,3.16,3.16,0,0,1,.92,1.19l13.16,29.54a2.42,2.42,0,0,1,.15.71A1.47,1.47,0,0,1,264.25,65.39Zm-2.89-2h2.23l-12.93-29a1.2,1.2,0,0,0-.35-.46.41.41,0,0,0-.23-.11h-2.6a.49.49,0,0,0-.23.11,1.31,1.31,0,0,0-.35.46L234,63.39h1.9l13-29.41,8.24,19.61-11.22,0-.91,2H258ZM244.63,56.3h0Z"/><path class="cls-1" d="M273.66,34a1.26,1.26,0,0,1,.27-.82.89.89,0,0,1,.72-.34h16.66a7.74,7.74,0,0,1,3.41.76,8.7,8.7,0,0,1,2.73,2.08,10.28,10.28,0,0,1,1.86,3.06,10.59,10.59,0,0,1,0,7.52,9.88,9.88,0,0,1-1.86,3,8.76,8.76,0,0,1-2.73,2.05,7.74,7.74,0,0,1-3.41.76h-9.24a.92.92,0,0,1-.72-.3,1.18,1.18,0,0,1-.28-.8V49.11a1.16,1.16,0,0,1,.28-.8.93.93,0,0,1,.72-.31h8.58a5,5,0,0,0,2-.42,5.25,5.25,0,0,0,2.82-2.91,5.55,5.55,0,0,0,.41-2.17,5.37,5.37,0,0,0-.41-2.14,5.72,5.72,0,0,0-1.13-1.71,5.36,5.36,0,0,0-1.69-1.16,4.89,4.89,0,0,0-2-.43H277.92V63.29a1.07,1.07,0,0,1-.31.8,1,1,0,0,1-.74.3h-2.22a1,1,0,0,1-.72-.3,1.17,1.17,0,0,1-.27-.8Z"/><path class="cls-1" d="M276.87,65.39h-2.22a1.93,1.93,0,0,1-1.46-.63,2.14,2.14,0,0,1-.53-1.47V34a2.27,2.27,0,0,1,.5-1.46,1.9,1.9,0,0,1,1.49-.7h16.66a8.75,8.75,0,0,1,3.84.86A9.77,9.77,0,0,1,298.2,35,11.19,11.19,0,0,1,301,42.5a11.23,11.23,0,0,1-.76,4.13,11.08,11.08,0,0,1-2,3.33,10.08,10.08,0,0,1-3.05,2.28,8.75,8.75,0,0,1-3.84.86h-9.24a1.92,1.92,0,0,1-1.46-.63,2.15,2.15,0,0,1-.54-1.47V49.11a2.15,2.15,0,0,1,.54-1.47,1.89,1.89,0,0,1,1.46-.63h8.58a3.92,3.92,0,0,0,1.61-.35,4.31,4.31,0,0,0,1.38-.95,4.2,4.2,0,0,0,.92-1.42,4.6,4.6,0,0,0,.34-1.79,4.55,4.55,0,0,0-.33-1.75,4.63,4.63,0,0,0-.93-1.4,4.31,4.31,0,0,0-1.38-1,3.91,3.91,0,0,0-1.61-.34H278.92V63.29a2.07,2.07,0,0,1-.6,1.5A2,2,0,0,1,276.87,65.39Zm-2.2-31.55s0,0,0,.16V63.29a.55.55,0,0,0,0,.12l2.2,0,.05-.1V36.06h13.73a6,6,0,0,1,2.42.51,6.5,6.5,0,0,1,2,1.38,6.6,6.6,0,0,1,1.34,2,6.45,6.45,0,0,1,.49,2.53,6.58,6.58,0,0,1-.49,2.55,6.17,6.17,0,0,1-1.34,2.06,6.33,6.33,0,0,1-2,1.38,6,6,0,0,1-2.42.52h-8.57a.58.58,0,0,0,0,.1V51c0,.08,0,.12,0,.12l9.22,0a6.76,6.76,0,0,0,3-.66,8,8,0,0,0,2.43-1.82,9,9,0,0,0,1.67-2.73,9.58,9.58,0,0,0,0-6.78,9.42,9.42,0,0,0-1.67-2.76,7.7,7.7,0,0,0-2.43-1.85,6.76,6.76,0,0,0-3-.66Z"/></svg>
