<svg id="Layer_1" data-name="Layer 1" xmlns="http://www.w3.org/2000/svg" viewBox="0 0 150 32"><defs><style>.cls-1{fill:#6c04ee;}</style></defs><path class="cls-1" d="M102.87,3.36a4.83,4.83,0,0,0-2.11.45c-.23.11-.45.23-.67.36a.34.34,0,0,0-.12.44.27.27,0,0,0,.38.13,2.1,2.1,0,0,0,.26-.13,4.73,4.73,0,0,1,4.57,0l.31.15a.3.3,0,0,0,.36-.16.3.3,0,0,0-.1-.4L105.5,4A5.19,5.19,0,0,0,102.87,3.36Zm0,1.37c-.27,0-.55.06-.82.11a3.85,3.85,0,0,0-1.41.57.32.32,0,0,0-.11.43.25.25,0,0,0,.36.14,1.66,1.66,0,0,0,.27-.13,3.5,3.5,0,0,1,3.27-.06l.41.2a.28.28,0,0,0,.36-.13.31.31,0,0,0-.06-.4L105,5.29A4.43,4.43,0,0,0,102.91,4.73Zm0,1.42a2.86,2.86,0,0,0-1.55.43.75.75,0,0,0-.17.14.33.33,0,0,0,0,.39.25.25,0,0,0,.34.13l.3-.15a2.16,2.16,0,0,1,1.59-.21,7.12,7.12,0,0,1,.87.34.27.27,0,0,0,.38-.13.32.32,0,0,0-.09-.42l-.1-.08A2.8,2.8,0,0,0,102.93,6.15Zm-.1,1.31a1.59,1.59,0,0,0-1,.43.3.3,0,0,0-.06.4.28.28,0,0,0,.38.12l.15-.08a1.16,1.16,0,0,1,1.3,0l.18.1a.28.28,0,0,0,.34-.14.29.29,0,0,0,0-.37,1,1,0,0,0-.23-.19A1.77,1.77,0,0,0,102.83,7.46Z"/><path class="cls-1" d="M102.87,3.36A5.19,5.19,0,0,1,105.5,4l.25.16a.3.3,0,0,1,.1.4.3.3,0,0,1-.36.16l-.31-.15a4.73,4.73,0,0,0-4.57,0,2.1,2.1,0,0,1-.26.13.27.27,0,0,1-.38-.13.34.34,0,0,1,.12-.44c.22-.13.44-.25.67-.36A4.83,4.83,0,0,1,102.87,3.36Z"/><path class="cls-1" d="M102.91,4.73a4.43,4.43,0,0,1,2,.56l.23.17a.31.31,0,0,1,.06.4.28.28,0,0,1-.36.13l-.41-.2a3.5,3.5,0,0,0-3.27.06,1.66,1.66,0,0,1-.27.13.25.25,0,0,1-.36-.14.32.32,0,0,1,.11-.43,3.85,3.85,0,0,1,1.41-.57C102.36,4.79,102.64,4.76,102.91,4.73Z"/><path class="cls-1" d="M102.93,6.15a2.8,2.8,0,0,1,1.53.44l.1.08a.32.32,0,0,1,.09.42.27.27,0,0,1-.38.13,7.12,7.12,0,0,0-.87-.34,2.16,2.16,0,0,0-1.59.21l-.3.15a.25.25,0,0,1-.34-.13.33.33,0,0,1,0-.39.75.75,0,0,1,.17-.14A2.86,2.86,0,0,1,102.93,6.15Z"/><path class="cls-1" d="M102.83,7.46a1.77,1.77,0,0,1,1,.27,1,1,0,0,1,.23.19.29.29,0,0,1,0,.37.28.28,0,0,1-.34.14l-.18-.1a1.16,1.16,0,0,0-1.3,0l-.15.08a.28.28,0,0,1-.38-.12.3.3,0,0,1,.06-.4A1.59,1.59,0,0,1,102.83,7.46Z"/><path class="cls-1" d="M102.24,31.73c-.16-.29-.48-.59-.47-.88a6.17,6.17,0,0,0-1.15-3.41,11.61,11.61,0,0,1-1.74-4.63,2.41,2.41,0,0,1,.6-2.25c.63-.58,1.32-.32,1.46.54,0,.32,0,.73.46.6.17-.06.32-.48.33-.74,0-3.28,0-6.57,0-9.85,0-.18,0-.37,0-.55.05-.81.56-1.4,1.21-1.38a1.3,1.3,0,0,1,1.18,1.41c0,2.1,0,4.2,0,6.3a1.46,1.46,0,0,0,0,.47,2.74,2.74,0,0,0,.35.49c.15-.15.38-.28.43-.47a5.08,5.08,0,0,0,0-.88,1.16,1.16,0,1,1,2.32,0c0,.77,0,1.55,0,2.33,0,.34,0,.76.43.74s.41-.43.41-.77c0-.18,0-.37,0-.55A1.24,1.24,0,0,1,109.23,17a1.13,1.13,0,0,1,1.23,1c.09.65.05,1.32.09,2,0,.36-.13.89.41.89s.35-.51.37-.86a4.91,4.91,0,0,1,.06-.67,1.16,1.16,0,0,1,2.32.16c0,2.26.27,4.55-.62,6.73a12.2,12.2,0,0,0-.59,4.3,4.07,4.07,0,0,1-.41,1.2Z"/><path class="cls-1" d="M96.64,9c.48,0,1,0,1.45,0a.81.81,0,0,1,.86.87.8.8,0,0,1-.86.86c-1,0-2,0-3,0a.79.79,0,0,1-.87-.86A.81.81,0,0,1,95.07,9C95.59,9,96.12,9,96.64,9Z"/><path class="cls-1" d="M109.3,10.71h-1.45a.79.79,0,0,1-.85-.87.81.81,0,0,1,.87-.86c1,0,2,0,3,0a.79.79,0,0,1,.85.87.78.78,0,0,1-.87.85C110.35,10.72,109.82,10.71,109.3,10.71Z"/><path class="cls-1" d="M13.92,16.24a3.24,3.24,0,0,0-1.84.58L6.72,12.76a3.88,3.88,0,0,0,.14-1,3.81,3.81,0,0,0-.14-1l5.22-4a3.18,3.18,0,0,0,2,.69,3.58,3.58,0,0,0,3.43-3.72A3.58,3.58,0,0,0,13.92,0a3.59,3.59,0,0,0-3.43,3.72,4.07,4.07,0,0,0,.08.79L5.22,8.56A3.18,3.18,0,0,0,3.43,8,3.58,3.58,0,0,0,0,11.73a3.58,3.58,0,0,0,3.43,3.72,3.18,3.18,0,0,0,1.79-.55L10.61,19a4.53,4.53,0,0,0-.12,1,3.59,3.59,0,0,0,3.43,3.72A3.58,3.58,0,0,0,17.35,20,3.58,3.58,0,0,0,13.92,16.24Z"/><path class="cls-1" d="M3.43,15.49a3.24,3.24,0,0,0,1.84-.58L10.63,19a3.88,3.88,0,0,0-.14,1,3.81,3.81,0,0,0,.14,1L5.41,25a3.18,3.18,0,0,0-2-.69A3.58,3.58,0,0,0,0,28a3.58,3.58,0,0,0,3.43,3.72A3.59,3.59,0,0,0,6.86,28a4.07,4.07,0,0,0-.08-.79l5.35-4a3.18,3.18,0,0,0,1.79.55A3.58,3.58,0,0,0,17.35,20a3.58,3.58,0,0,0-3.43-3.72,3.18,3.18,0,0,0-1.79.55L6.74,12.74a4.37,4.37,0,0,0,.12-1A3.59,3.59,0,0,0,3.43,8.05,3.58,3.58,0,0,0,0,11.77,3.58,3.58,0,0,0,3.43,15.49Z"/><path class="cls-1" d="M21.08,16.42a.59.59,0,0,1,.15-.41.46.46,0,0,1,.36-.16h1.15a.43.43,0,0,1,.35.16.64.64,0,0,1,.14.41v14.3a.61.61,0,0,1-.14.4.44.44,0,0,1-.35.17H21.59a.48.48,0,0,1-.36-.17.57.57,0,0,1-.15-.4Zm3.75,6.31a.6.6,0,0,1,.13-.4.48.48,0,0,1,.36-.17h8.06V16.42a.59.59,0,0,1,.15-.41.46.46,0,0,1,.35-.16H35a.51.51,0,0,1,.38.16.59.59,0,0,1,.15.41v14.3a.57.57,0,0,1-.15.4.52.52,0,0,1-.38.17H33.88a.47.47,0,0,1-.35-.17.57.57,0,0,1-.15-.4V24.23H25.32a.49.49,0,0,1-.36-.15.56.56,0,0,1-.13-.39Z"/><path class="cls-1" d="M35,31.78H33.88a1,1,0,0,1-.72-.33,1.05,1.05,0,0,1-.28-.73v-6H25.32a1,1,0,0,1-.73-.32,1,1,0,0,1-.26-.71v-1a1,1,0,0,1,.25-.71.94.94,0,0,1,.74-.35h7.56V16.42a1.08,1.08,0,0,1,.28-.74,1,1,0,0,1,.72-.32H35a1,1,0,0,1,.74.32,1,1,0,0,1,.29.74v14.3a1.06,1.06,0,0,1-.29.74A1,1,0,0,1,35,31.78Zm-1.59-8h.49v7a.08.08,0,0,0,0,.07H35a.09.09,0,0,0,0-.08V16.42c0-.05,0-.07,0-.08h-1.1s0,0,0,.08v6.23H25.33s0,0,0,.08v1a.15.15,0,0,0,0,.06Zm-10.64,8H21.59a1,1,0,0,1-.74-.33,1.06,1.06,0,0,1-.27-.73V16.42a1,1,0,0,1,.27-.73,1,1,0,0,1,.74-.33h1.15a1,1,0,0,1,.74.34,1.14,1.14,0,0,1,.25.72v14.3a1.1,1.1,0,0,1-.25.71A1,1,0,0,1,22.74,31.78Zm0-15.46-1.11,0a.15.15,0,0,0,0,.08v14.3a.1.1,0,0,0,0,.08h1.12a.38.38,0,0,0,0-.08V16.42C22.73,16.35,22.71,16.33,22.7,16.32Z"/><path class="cls-1" d="M55.36,30.81c0,.12,0,.19,0,.21a.24.24,0,0,1-.27.27H53.59a.35.35,0,0,1-.33-.24l-1.57-3.56H45.07c-.13,0-.19-.07-.19-.21a.34.34,0,0,1,0-.15l.61-1.32a.41.41,0,0,1,.41-.3h4.89l-3.37-7.87-6,13.41a.37.37,0,0,1-.33.24H39.72c-.19,0-.28-.09-.28-.27a1.25,1.25,0,0,1,.06-.21L46,16.42a1.17,1.17,0,0,1,.32-.41.68.68,0,0,1,.43-.16h1.29a.68.68,0,0,1,.43.16,1.07,1.07,0,0,1,.32.41Z"/><path class="cls-1" d="M55.14,31.78H53.59a.88.88,0,0,1-.79-.53L51.36,28H45.07a.66.66,0,0,1-.69-.7.86.86,0,0,1,.07-.36l.61-1.31a.88.88,0,0,1,.86-.59h4.14l-2.63-6.14L41.88,31.25a.84.84,0,0,1-.78.53H39.72a.74.74,0,0,1-.78-.76,1.43,1.43,0,0,1,.08-.35l0-.06,6.54-14.39a1.66,1.66,0,0,1,.46-.59,1.19,1.19,0,0,1,.74-.27h1.29a1.19,1.19,0,0,1,.75.27,1.69,1.69,0,0,1,.45.58l6.56,14.46a1.26,1.26,0,0,1,.08.35A.73.73,0,0,1,55.14,31.78Zm-1.45-1h1.12L48.36,16.61a.6.6,0,0,0-.17-.22.26.26,0,0,0-.12-.05H46.78a.22.22,0,0,0-.11.05.58.58,0,0,0-.18.23L40.05,30.8h1l6.45-14.4,4.1,9.6H46l-.45,1H52Zm-8.33-3.47Z"/><path class="cls-1" d="M59.82,16.42A.64.64,0,0,1,60,16a.44.44,0,0,1,.36-.16h8.27a3.88,3.88,0,0,1,1.7.37,4.58,4.58,0,0,1,1.38,1,5.09,5.09,0,0,1,.94,1.49,5.16,5.16,0,0,1,.09,3.43A4.53,4.53,0,0,1,72,23.51a4.47,4.47,0,0,1-1.05,1,3.82,3.82,0,0,1-1.29.61L73.58,31a.37.37,0,0,1,.06.21c0,.1-.06.15-.17.15H71.74a.72.72,0,0,1-.4-.14,1.14,1.14,0,0,1-.35-.34L67.24,25.3H64a.45.45,0,0,1-.35-.15.52.52,0,0,1-.14-.39v-.92a.52.52,0,0,1,.14-.39A.45.45,0,0,1,64,23.3h4.31a2.41,2.41,0,0,0,1.8-.78,2.79,2.79,0,0,0,0-3.83,2.41,2.41,0,0,0-1.8-.78H62V30.75a.53.53,0,0,1-.53.54h-1.1a.46.46,0,0,1-.36-.15.56.56,0,0,1-.14-.39Z"/><path class="cls-1" d="M73.47,31.81H71.74a1.27,1.27,0,0,1-.68-.22,1.76,1.76,0,0,1-.49-.49L67,25.79H64a1,1,0,0,1-.72-.31,1,1,0,0,1-.27-.72v-.92a1,1,0,0,1,.27-.72,1,1,0,0,1,.72-.31h4.31a1.93,1.93,0,0,0,1.44-.63,2.31,2.31,0,0,0,0-3.15,1.93,1.93,0,0,0-1.44-.63H62.45V30.75a1,1,0,0,1-1,1h-1.1a1,1,0,0,1-.73-.31,1.07,1.07,0,0,1-.27-.72V16.42a1.08,1.08,0,0,1,.26-.72,1,1,0,0,1,.74-.34h8.27a4.45,4.45,0,0,1,1.92.42A5.15,5.15,0,0,1,72,16.91a5.36,5.36,0,0,1,1.41,3.67,5.5,5.5,0,0,1-.27,1.73,5.18,5.18,0,0,1-.76,1.48,5.5,5.5,0,0,1-1.16,1.15,4.76,4.76,0,0,1-.82.46L74,30.69a.84.84,0,0,1,.14.48A.63.63,0,0,1,73.47,31.81Zm-6.23-7h.27l3.9,5.76a.8.8,0,0,0,.2.21l.13,0H72.9l-4-6,.67-.18a3.18,3.18,0,0,0,1.13-.54,3.91,3.91,0,0,0,.94-.92A4.46,4.46,0,0,0,72.23,22a4.51,4.51,0,0,0,.22-1.43,4.27,4.27,0,0,0-.31-1.66,4.22,4.22,0,0,0-.84-1.35,3.94,3.94,0,0,0-1.23-.91,3.48,3.48,0,0,0-1.48-.32H60.33a.2.2,0,0,0,0,.08V30.75a.15.15,0,0,0,0,.06h1.09l0-.05V17.42h6.87a2.91,2.91,0,0,1,2.16.93,3.28,3.28,0,0,1,0,4.51,3,3,0,0,1-2.16.93H64v1Z"/><path class="cls-1" d="M80.87,29.22h9.79a.47.47,0,0,1,.34.17.57.57,0,0,1,.15.4v1a.53.53,0,0,1-.15.37.47.47,0,0,1-.34.17H79.24a.47.47,0,0,1-.35-.17.53.53,0,0,1-.15-.37V16.42a.59.59,0,0,1,.15-.41.46.46,0,0,1,.35-.16H90.52a.49.49,0,0,1,.37.16.59.59,0,0,1,.15.41v.95a.55.55,0,0,1-.15.38.49.49,0,0,1-.37.16H80.87Zm1.51-6.46a.56.56,0,0,1,.14-.39.46.46,0,0,1,.36-.15H89.8a.5.5,0,0,1,.35.15.53.53,0,0,1,.15.39v.93a.53.53,0,0,1-.15.39.5.5,0,0,1-.35.15H82.88a.46.46,0,0,1-.36-.15.56.56,0,0,1-.14-.39Z"/><path class="cls-1" d="M90.66,31.78H79.24a1,1,0,0,1-.72-.33,1,1,0,0,1-.28-.7V16.42a1.1,1.1,0,0,1,.28-.74,1,1,0,0,1,.72-.32H90.52a1,1,0,0,1,.74.32,1.1,1.1,0,0,1,.28.74v.95a1.06,1.06,0,0,1-.28.71,1,1,0,0,1-.74.32H81.36V28.73h9.3a1,1,0,0,1,.71.33,1.07,1.07,0,0,1,.28.73v1a1,1,0,0,1-.28.7A1,1,0,0,1,90.66,31.78ZM79.24,16.34s0,0,0,.08V30.75s0,0,0,0h11.4a.13.13,0,0,1,0-.05v-1c0-.05,0-.06,0-.07H80.37V17.42H90.52s0,0,0-.05v-.95c0-.05,0-.07,0-.08ZM89.8,24.72H82.88a1,1,0,0,1-.73-.32,1,1,0,0,1-.27-.71v-.93a1.07,1.07,0,0,1,.27-.72,1,1,0,0,1,.73-.31H89.8a1,1,0,0,1,.7.29,1.05,1.05,0,0,1,.3.74v.93a1,1,0,0,1-1,1Zm-6.92-2v1a.15.15,0,0,0,0,.06H89.8v0l0-1Z"/><path class="cls-1" d="M131.91,31c0,.12.05.19.05.21a.24.24,0,0,1-.27.27h-1.55a.35.35,0,0,1-.33-.24l-1.57-3.56h-6.62c-.13,0-.19-.07-.19-.21a.61.61,0,0,1,0-.15l.61-1.32a.41.41,0,0,1,.41-.29h4.89L124,17.86l-6,13.41a.35.35,0,0,1-.33.24h-1.38a.25.25,0,0,1-.28-.27,1.25,1.25,0,0,1,.06-.21l6.54-14.39a1,1,0,0,1,.31-.41.68.68,0,0,1,.43-.16h1.3a.65.65,0,0,1,.42.16,1.07,1.07,0,0,1,.32.41Z"/><path class="cls-1" d="M131.69,32h-1.55a.84.84,0,0,1-.78-.53l-1.45-3.27h-6.29a.66.66,0,0,1-.69-.7.78.78,0,0,1,.07-.35l.61-1.32a.88.88,0,0,1,.87-.58h4.13L124,19.1l-5.54,12.37a.86.86,0,0,1-.79.53h-1.38a.73.73,0,0,1-.77-.76,1.23,1.23,0,0,1,.07-.35l0-.06,6.54-14.39a1.66,1.66,0,0,1,.46-.59,1.19,1.19,0,0,1,.74-.27h1.3a1.19,1.19,0,0,1,.74.27,1.53,1.53,0,0,1,.45.59l6.56,14.45a1.26,1.26,0,0,1,.08.35A.73.73,0,0,1,131.69,32Zm-1.45-1h1.12l-6.44-14.18a.66.66,0,0,0-.18-.23.27.27,0,0,0-.11-.05h-1.3a.22.22,0,0,0-.11.05.66.66,0,0,0-.18.23L116.6,31h1L124,16.63l4.11,9.59-5.59,0-.46,1h6.51Zm-8.33-3.47Z"/><path class="cls-1" d="M136.37,16.64a.64.64,0,0,1,.14-.41.44.44,0,0,1,.36-.16h8.3a3.91,3.91,0,0,1,1.7.37,4.27,4.27,0,0,1,1.36,1,5,5,0,0,1,.93,1.5,5.15,5.15,0,0,1,0,3.68,4.77,4.77,0,0,1-.93,1.48,4.36,4.36,0,0,1-1.36,1,3.92,3.92,0,0,1-1.7.38h-4.6a.46.46,0,0,1-.36-.15.56.56,0,0,1-.14-.39V24a.56.56,0,0,1,.14-.39.46.46,0,0,1,.36-.15h4.27a2.5,2.5,0,0,0,1-.21,2.71,2.71,0,0,0,.84-.57,2.47,2.47,0,0,0,.56-.85,2.67,2.67,0,0,0,.21-1.06,2.59,2.59,0,0,0-.21-1.05,2.53,2.53,0,0,0-.56-.84,2.71,2.71,0,0,0-.84-.57,2.5,2.5,0,0,0-1-.21H138.5V31a.53.53,0,0,1-.15.39.54.54,0,0,1-.38.15h-1.1a.46.46,0,0,1-.36-.15.56.56,0,0,1-.14-.39Z"/><path class="cls-1" d="M138,32h-1.1a1,1,0,0,1-.73-.31,1.06,1.06,0,0,1-.26-.72V16.64a1.09,1.09,0,0,1,.25-.72,1,1,0,0,1,.74-.34h8.3a4.45,4.45,0,0,1,1.92.42,4.86,4.86,0,0,1,1.52,1.14,5.58,5.58,0,0,1,1,1.64,5.56,5.56,0,0,1,0,4,5.23,5.23,0,0,1-1,1.63,4.88,4.88,0,0,1-1.51,1.11,4.46,4.46,0,0,1-1.92.43h-4.6a.94.94,0,0,1-.73-.32,1,1,0,0,1-.27-.71V24a1,1,0,0,1,.27-.72,1,1,0,0,1,.73-.31h4.27a1.9,1.9,0,0,0,.81-.17,2.15,2.15,0,0,0,.68-.46,2,2,0,0,0,.46-.7,2.08,2.08,0,0,0,.17-.87,2.2,2.2,0,0,0-.16-.86,2.2,2.2,0,0,0-1.15-1.15,2.06,2.06,0,0,0-.81-.17H139V31a1.05,1.05,0,0,1-.3.74A1,1,0,0,1,138,32Zm-1.09-15.44a.2.2,0,0,0,0,.08V31a.15.15,0,0,0,0,.06H138l0-.05V17.65h6.84a3,3,0,0,1,1.21.25,3.09,3.09,0,0,1,1,.67,2.94,2.94,0,0,1,.67,1A3,3,0,0,1,148,20.8a3.15,3.15,0,0,1-1.91,2.93,3,3,0,0,1-1.21.25h-4.27v1s0,.05,0,.06h4.59a3.34,3.34,0,0,0,1.48-.33,4,4,0,0,0,1.21-.89,4.1,4.1,0,0,0,.83-1.33,4.6,4.6,0,0,0,0-3.32,4.2,4.2,0,0,0-.83-1.35,3.86,3.86,0,0,0-1.21-.91,3.48,3.48,0,0,0-1.48-.32Z"/></svg>